{
	"patcher" : 	{
		"fileversion" : 1,
		"appversion" : 		{
			"major" : 8,
			"minor" : 6,
			"revision" : 2,
			"architecture" : "x64",
			"modernui" : 1
		}
,
		"classnamespace" : "box",
		"rect" : [ 130.0, 87.0, 2273.0, 1106.0 ],
		"openrect" : [ 0.0, 0.0, 0.0, 169.0 ],
		"bglocked" : 0,
		"openinpresentation" : 1,
		"default_fontsize" : 10.0,
		"default_fontface" : 0,
		"default_fontname" : "Arial Bold",
		"gridonopen" : 1,
		"gridsize" : [ 8.0, 8.0 ],
		"gridsnaponopen" : 1,
		"objectsnaponopen" : 1,
		"statusbarvisible" : 2,
		"toolbarvisible" : 1,
		"lefttoolbarpinned" : 0,
		"toptoolbarpinned" : 0,
		"righttoolbarpinned" : 0,
		"bottomtoolbarpinned" : 0,
		"toolbars_unpinned_last_save" : 0,
		"tallnewobj" : 0,
		"boxanimatetime" : 500,
		"enablehscroll" : 1,
		"enablevscroll" : 1,
		"devicewidth" : 0.0,
		"description" : "",
		"digest" : "",
		"tags" : "",
		"style" : "",
		"subpatcher_template" : "",
		"assistshowspatchername" : 0,
		"boxes" : [ 			{
				"box" : 				{
					"dontreplace" : 1,
					"id" : "obj-44",
					"maxclass" : "message",
					"numinlets" : 2,
					"numoutlets" : 1,
					"outlettype" : [ "" ],
					"patching_rect" : [ 484.5, 406.347450613975525, 50.0, 20.0 ],
					"presentation" : 1,
					"presentation_rect" : [ 109.136362552642822, 139.688310623168945, 50.0, 20.0 ],
					"text" : "4 4"
				}

			}
, 			{
				"box" : 				{
					"dontreplace" : 1,
					"id" : "obj-41",
					"maxclass" : "message",
					"numinlets" : 2,
					"numoutlets" : 1,
					"outlettype" : [ "" ],
					"patching_rect" : [ 425.0, 406.347450613975525, 50.0, 20.0 ],
					"presentation" : 1,
					"presentation_rect" : [ 109.136362552642822, 119.02163862316894, 50.0, 20.0 ],
					"text" : "120."
				}

			}
, 			{
				"box" : 				{
					"id" : "obj-31",
					"maxclass" : "button",
					"numinlets" : 1,
					"numoutlets" : 1,
					"outlettype" : [ "bang" ],
					"parameter_enable" : 0,
					"patching_rect" : [ 1137.036999762058258, 382.222209692001343, 24.0, 24.0 ]
				}

			}
, 			{
				"box" : 				{
					"fontname" : "Arial Bold",
					"fontsize" : 10.0,
					"id" : "obj-8",
					"maxclass" : "comment",
					"numinlets" : 1,
					"numoutlets" : 0,
					"patching_rect" : [ 1164.071428775787354, 348.347450613975525, 87.909090518951416, 18.0 ],
					"presentation" : 1,
					"presentation_rect" : [ 70.536585330963135, 5.844155788421631, 100.0, 18.0 ],
					"text" : "Waveform",
					"textjustification" : 1
				}

			}
, 			{
				"box" : 				{
					"bgmode" : 0,
					"border" : 0,
					"clickthrough" : 0,
					"enablehscroll" : 0,
					"enablevscroll" : 0,
					"id" : "obj-70",
					"lockeddragscroll" : 0,
					"lockedsize" : 0,
					"maxclass" : "bpatcher",
					"name" : "NoteGenerator.maxpat",
					"numinlets" : 2,
					"numoutlets" : 1,
					"offset" : [ 0.0, 0.0 ],
					"outlettype" : [ "int" ],
					"patching_rect" : [ 267.0, 174.347450613975525, 273.0, 168.0 ],
					"presentation" : 1,
					"presentation_rect" : [ 454.181818008422852, 0.354975100006101, 252.0, 170.666672000000005 ],
					"viewvisibility" : 1
				}

			}
, 			{
				"box" : 				{
					"id" : "obj-7",
					"maxclass" : "newobj",
					"numinlets" : 3,
					"numoutlets" : 0,
					"patching_rect" : [ 267.0, 760.0, 183.0, 20.0 ],
					"text" : "noteout 1"
				}

			}
, 			{
				"box" : 				{
					"id" : "obj-60",
					"maxclass" : "newobj",
					"numinlets" : 3,
					"numoutlets" : 2,
					"outlettype" : [ "float", "float" ],
					"patching_rect" : [ 267.0, 726.0, 101.0, 20.0 ],
					"text" : "makenote 80 700"
				}

			}
, 			{
				"box" : 				{
					"appearance" : 1,
					"id" : "obj-35",
					"maxclass" : "live.tab",
					"num_lines_patching" : 1,
					"num_lines_presentation" : 1,
					"numinlets" : 1,
					"numoutlets" : 3,
					"outlettype" : [ "", "", "float" ],
					"parameter_enable" : 1,
					"patching_rect" : [ 1159.0, 321.347450613975525, 100.0, 20.0 ],
					"presentation" : 1,
					"presentation_rect" : [ 70.536585330963135, 24.344155788421631, 100.0, 20.0 ],
					"saved_attribute_attributes" : 					{
						"valueof" : 						{
							"parameter_enum" : [ "Sine", "Rectified" ],
							"parameter_longname" : "Waveform",
							"parameter_mmax" : 1,
							"parameter_modmode" : 0,
							"parameter_shortname" : "Waveform",
							"parameter_type" : 2,
							"parameter_unitstyle" : 9
						}

					}
,
					"varname" : "WaveSelecz"
				}

			}
, 			{
				"box" : 				{
					"id" : "obj-29",
					"maxclass" : "comment",
					"numinlets" : 1,
					"numoutlets" : 0,
					"patching_rect" : [ 1261.0, 196.0, 125.0, 18.0 ],
					"text" : "Bass",
					"textjustification" : 1
				}

			}
, 			{
				"box" : 				{
					"id" : "obj-33",
					"maxclass" : "newobj",
					"numinlets" : 1,
					"numoutlets" : 3,
					"outlettype" : [ "bang", "int", "int" ],
					"patching_rect" : [ 828.0, 156.0, 77.0, 20.0 ],
					"text" : "live.thisdevice"
				}

			}
, 			{
				"box" : 				{
					"id" : "obj-75",
					"maxclass" : "newobj",
					"numinlets" : 1,
					"numoutlets" : 1,
					"outlettype" : [ "int" ],
					"patching_rect" : [ 1028.0, 418.347450613975525, 26.0, 20.0 ],
					"text" : "abs"
				}

			}
, 			{
				"box" : 				{
					"id" : "obj-74",
					"maxclass" : "newobj",
					"numinlets" : 2,
					"numoutlets" : 1,
					"outlettype" : [ "int" ],
					"patching_rect" : [ 1028.0, 393.0, 29.5, 20.0 ],
					"text" : "- 1"
				}

			}
, 			{
				"box" : 				{
					"id" : "obj-73",
					"maxclass" : "newobj",
					"numinlets" : 1,
					"numoutlets" : 1,
					"outlettype" : [ "" ],
					"patching_rect" : [ 1028.0, 443.347450613975525, 79.0, 20.0 ],
					"text" : "prepend active"
				}

			}
, 			{
				"box" : 				{
					"fontname" : "Arial Bold",
					"fontsize" : 10.0,
					"id" : "obj-50",
					"maxclass" : "comment",
					"numinlets" : 1,
					"numoutlets" : 0,
					"patching_rect" : [ 983.166666666666515, 321.347450613975525, 47.0, 18.0 ],
					"presentation" : 1,
					"presentation_rect" : [ 10.29220724105835, 5.844155788421631, 52.0, 18.0 ],
					"text" : "On / Off",
					"textjustification" : 1
				}

			}
, 			{
				"box" : 				{
					"id" : "obj-43",
					"maxclass" : "led",
					"numinlets" : 1,
					"numoutlets" : 1,
					"offcolor" : [ 0.313725490196078, 0.313725490196078, 0.313725490196078, 1.0 ],
					"oncolor" : [ 1.0, 0.709803921568627, 0.196078431372549, 1.0 ],
					"outlettype" : [ "int" ],
					"parameter_enable" : 0,
					"patching_rect" : [ 994.666666666666629, 345.347450613975525, 24.0, 24.0 ],
					"presentation" : 1,
					"presentation_rect" : [ 24.29220724105835, 24.344155788421631, 24.0, 24.0 ],
					"saved_attribute_attributes" : 					{
						"offcolor" : 						{
							"expression" : "themecolor.live_contrast_frame"
						}
,
						"oncolor" : 						{
							"expression" : "themecolor.live_control_selection"
						}

					}
,
					"varname" : "OnOff"
				}

			}
, 			{
				"box" : 				{
					"id" : "obj-32",
					"maxclass" : "comment",
					"numinlets" : 1,
					"numoutlets" : 0,
					"patching_rect" : [ 1287.055556684732437, 303.703693747520447, 68.888886630535126, 76.0 ],
					"presentation" : 1,
					"presentation_rect" : [ 180.519478797912598, 83.688310623168945, 84.205581665039062, 76.0 ],
					"text" : "Bass Trigger\n\n\n\n\n",
					"textjustification" : 1
				}

			}
, 			{
				"box" : 				{
					"id" : "obj-28",
					"maxclass" : "newobj",
					"numinlets" : 1,
					"numoutlets" : 1,
					"outlettype" : [ "bang" ],
					"patching_rect" : [ 921.0, 156.0, 53.0, 20.0 ],
					"text" : "loadbang"
				}

			}
, 			{
				"box" : 				{
					"id" : "obj-27",
					"maxclass" : "newobj",
					"numinlets" : 1,
					"numoutlets" : 2,
					"outlettype" : [ "bang", "float" ],
					"patching_rect" : [ 731.0, 376.347450613975525, 29.5, 20.0 ],
					"text" : "t b f"
				}

			}
, 			{
				"box" : 				{
					"id" : "obj-24",
					"maxclass" : "newobj",
					"numinlets" : 2,
					"numoutlets" : 1,
					"outlettype" : [ "float" ],
					"patching_rect" : [ 706.0, 418.347450613975525, 29.5, 20.0 ],
					"text" : "+ 0."
				}

			}
, 			{
				"box" : 				{
					"id" : "obj-21",
					"maxclass" : "live.dial",
					"numinlets" : 1,
					"numoutlets" : 2,
					"outlettype" : [ "", "float" ],
					"parameter_enable" : 1,
					"patching_rect" : [ 731.0, 321.347450613975525, 41.0, 48.0 ],
					"presentation" : 1,
					"presentation_rect" : [ 57.777775883674622, 115.555551767349243, 41.0, 48.0 ],
					"saved_attribute_attributes" : 					{
						"valueof" : 						{
							"parameter_initial" : [ 0.0 ],
							"parameter_initial_enable" : 1,
							"parameter_longname" : "Fine",
							"parameter_mmax" : 0.5,
							"parameter_mmin" : -0.5,
							"parameter_modmode" : 3,
							"parameter_shortname" : "Fine",
							"parameter_type" : 0,
							"parameter_units" : "‰",
							"parameter_unitstyle" : 9
						}

					}
,
					"varname" : "Phase[1]"
				}

			}
, 			{
				"box" : 				{
					"id" : "obj-11",
					"maxclass" : "newobj",
					"numinlets" : 1,
					"numoutlets" : 3,
					"outlettype" : [ "", "int", "int" ],
					"patching_rect" : [ 28.0, 300.0, 58.0, 20.0 ],
					"text" : "change 1"
				}

			}
, 			{
				"box" : 				{
					"color" : [ 1.0, 0.345098039215686, 0.298039215686275, 1.0 ],
					"id" : "obj-14",
					"maxclass" : "newobj",
					"numinlets" : 0,
					"numoutlets" : 1,
					"outlettype" : [ "" ],
					"patching_rect" : [ 28.0, 264.0, 54.0, 20.0 ],
					"saved_attribute_attributes" : 					{
						"color" : 						{
							"expression" : "themecolor.live_active_automation"
						}

					}
,
					"saved_newobj_attribute_attributes" : 					{
						"color" : 						{
							"expression" : "themecolor.live_active_automation"
						}

					}
,
					"text" : "r Tstatus"
				}

			}
, 			{
				"box" : 				{
					"id" : "obj-10",
					"maxclass" : "live.dial",
					"numinlets" : 1,
					"numoutlets" : 2,
					"outlettype" : [ "", "float" ],
					"parameter_enable" : 1,
					"patching_rect" : [ 846.0, 321.347450613975525, 41.0, 48.0 ],
					"presentation" : 1,
					"presentation_rect" : [ 4.444444298744202, 115.555551767349243, 41.0, 48.0 ],
					"saved_attribute_attributes" : 					{
						"valueof" : 						{
							"parameter_initial" : [ 16 ],
							"parameter_initial_enable" : 1,
							"parameter_longname" : "Steps",
							"parameter_mmax" : 16.0,
							"parameter_mmin" : 2.0,
							"parameter_modmode" : 4,
							"parameter_shortname" : "Steps",
							"parameter_type" : 1,
							"parameter_unitstyle" : 0
						}

					}
,
					"varname" : "live.dial[4]"
				}

			}
, 			{
				"box" : 				{
					"id" : "obj-128",
					"maxclass" : "newobj",
					"numinlets" : 1,
					"numoutlets" : 2,
					"outlettype" : [ "bang", "float" ],
					"patching_rect" : [ 706.0, 443.347450613975525, 38.983051776885986, 20.0 ],
					"text" : "t b f"
				}

			}
, 			{
				"box" : 				{
					"id" : "obj-126",
					"maxclass" : "newobj",
					"numinlets" : 1,
					"numoutlets" : 7,
					"outlettype" : [ "bang", "bang", "bang", "bang", "bang", "bang", "bang" ],
					"patching_rect" : [ 921.0, 223.0, 125.0, 20.0 ],
					"text" : "t b b b b b b b"
				}

			}
, 			{
				"box" : 				{
					"id" : "obj-125",
					"maxclass" : "live.text",
					"mode" : 0,
					"numinlets" : 1,
					"numoutlets" : 2,
					"outlettype" : [ "", "" ],
					"parameter_enable" : 1,
					"patching_rect" : [ 921.0, 200.0, 44.0, 15.0 ],
					"presentation" : 1,
					"presentation_rect" : [ 198.794424533843994, 53.350649356842041, 44.0, 15.0 ],
					"saved_attribute_attributes" : 					{
						"valueof" : 						{
							"parameter_enum" : [ "val1", "val2" ],
							"parameter_longname" : "Reset Loop",
							"parameter_mmax" : 1,
							"parameter_modmode" : 0,
							"parameter_shortname" : "Reset",
							"parameter_type" : 2
						}

					}
,
					"text" : "Reset",
					"varname" : "Reset"
				}

			}
, 			{
				"box" : 				{
					"color" : [ 1.0, 0.345098039215686, 0.298039215686275, 1.0 ],
					"id" : "obj-123",
					"maxclass" : "newobj",
					"numinlets" : 1,
					"numoutlets" : 0,
					"patching_rect" : [ 42.0, 462.347450613975525, 49.0, 20.0 ],
					"saved_attribute_attributes" : 					{
						"color" : 						{
							"expression" : "themecolor.live_active_automation"
						}

					}
,
					"saved_newobj_attribute_attributes" : 					{
						"color" : 						{
							"expression" : "themecolor.live_active_automation"
						}

					}
,
					"text" : "s Tbeats"
				}

			}
, 			{
				"box" : 				{
					"color" : [ 1.0, 0.345098039215686, 0.298039215686275, 1.0 ],
					"id" : "obj-122",
					"maxclass" : "newobj",
					"numinlets" : 1,
					"numoutlets" : 0,
					"patching_rect" : [ 28.0, 488.347450613975525, 44.0, 20.0 ],
					"saved_attribute_attributes" : 					{
						"color" : 						{
							"expression" : "themecolor.live_active_automation"
						}

					}
,
					"saved_newobj_attribute_attributes" : 					{
						"color" : 						{
							"expression" : "themecolor.live_active_automation"
						}

					}
,
					"text" : "s Tbars"
				}

			}
, 			{
				"box" : 				{
					"color" : [ 1.0, 0.345098039215686, 0.298039215686275, 1.0 ],
					"id" : "obj-121",
					"maxclass" : "newobj",
					"numinlets" : 1,
					"numoutlets" : 0,
					"patching_rect" : [ 85.0, 488.347450613975525, 52.0, 20.0 ],
					"saved_attribute_attributes" : 					{
						"color" : 						{
							"expression" : "themecolor.live_active_automation"
						}

					}
,
					"saved_newobj_attribute_attributes" : 					{
						"color" : 						{
							"expression" : "themecolor.live_active_automation"
						}

					}
,
					"text" : "s Tstatus"
				}

			}
, 			{
				"box" : 				{
					"color" : [ 1.0, 0.34902, 0.372549, 1.0 ],
					"id" : "obj-119",
					"maxclass" : "newobj",
					"numinlets" : 1,
					"numoutlets" : 0,
					"patching_rect" : [ 100.0, 462.347450613975525, 37.0, 20.0 ],
					"saved_attribute_attributes" : 					{
						"color" : 						{
							"expression" : "themecolor.live_record"
						}

					}
,
					"saved_newobj_attribute_attributes" : 					{
						"color" : 						{
							"expression" : "themecolor.live_record"
						}

					}
,
					"text" : "s Tsig"
				}

			}
, 			{
				"box" : 				{
					"color" : [ 1.0, 0.34902, 0.372549, 1.0 ],
					"id" : "obj-118",
					"maxclass" : "newobj",
					"numinlets" : 1,
					"numoutlets" : 0,
					"patching_rect" : [ 64.0, 433.347450613975525, 45.0, 20.0 ],
					"saved_attribute_attributes" : 					{
						"color" : 						{
							"expression" : "themecolor.live_record"
						}

					}
,
					"saved_newobj_attribute_attributes" : 					{
						"color" : 						{
							"expression" : "themecolor.live_record"
						}

					}
,
					"text" : "S Tbpm"
				}

			}
, 			{
				"box" : 				{
					"color" : [ 1.0, 0.345098039215686, 0.298039215686275, 1.0 ],
					"id" : "obj-117",
					"maxclass" : "newobj",
					"numinlets" : 0,
					"numoutlets" : 1,
					"outlettype" : [ "" ],
					"patching_rect" : [ 296.888890564441681, 355.555543899536133, 42.0, 20.0 ],
					"saved_attribute_attributes" : 					{
						"color" : 						{
							"expression" : "themecolor.live_active_automation"
						}

					}
,
					"saved_newobj_attribute_attributes" : 					{
						"color" : 						{
							"expression" : "themecolor.live_active_automation"
						}

					}
,
					"text" : "r Tbpm"
				}

			}
, 			{
				"box" : 				{
					"color" : [ 1.0, 0.345098039215686, 0.298039215686275, 1.0 ],
					"id" : "obj-116",
					"maxclass" : "newobj",
					"numinlets" : 0,
					"numoutlets" : 1,
					"outlettype" : [ "" ],
					"patching_rect" : [ 348.0, 355.555543899536133, 35.0, 20.0 ],
					"saved_attribute_attributes" : 					{
						"color" : 						{
							"expression" : "themecolor.live_active_automation"
						}

					}
,
					"saved_newobj_attribute_attributes" : 					{
						"color" : 						{
							"expression" : "themecolor.live_active_automation"
						}

					}
,
					"text" : "r Tsig"
				}

			}
, 			{
				"box" : 				{
					"id" : "obj-115",
					"maxclass" : "newobj",
					"numinlets" : 2,
					"numoutlets" : 1,
					"outlettype" : [ "int" ],
					"patching_rect" : [ 425.0, 601.0, 29.5, 20.0 ],
					"text" : "+ 1"
				}

			}
, 			{
				"box" : 				{
					"id" : "obj-110",
					"maxclass" : "newobj",
					"numinlets" : 2,
					"numoutlets" : 2,
					"outlettype" : [ "", "" ],
					"patching_rect" : [ 425.0, 660.0, 37.0, 20.0 ],
					"text" : "gate 2"
				}

			}
, 			{
				"box" : 				{
					"blinkcolor" : [ 1.0, 0.709803921568627, 0.196078431372549, 1.0 ],
					"id" : "obj-105",
					"maxclass" : "button",
					"numinlets" : 1,
					"numoutlets" : 1,
					"outlettype" : [ "bang" ],
					"outlinecolor" : [ 1.0, 0.709803921568627, 0.196078431372549, 1.0 ],
					"parameter_enable" : 0,
					"patching_rect" : [ 1285.0, 716.0, 24.0, 24.0 ],
					"presentation" : 1,
					"presentation_rect" : [ 190.06652307510376, 115.02163862316894, 24.0, 24.0 ],
					"saved_attribute_attributes" : 					{
						"blinkcolor" : 						{
							"expression" : "themecolor.live_control_selection"
						}
,
						"outlinecolor" : 						{
							"expression" : "themecolor.live_control_selection"
						}

					}

				}

			}
, 			{
				"box" : 				{
					"fontname" : "Arial",
					"fontsize" : 12.0,
					"id" : "obj-93",
					"maxclass" : "newobj",
					"numinlets" : 1,
					"numoutlets" : 3,
					"outlettype" : [ "", "int", "int" ],
					"patching_rect" : [ 1285.0, 684.0, 54.0, 22.0 ],
					"text" : "change"
				}

			}
, 			{
				"box" : 				{
					"fontname" : "Arial",
					"fontsize" : 12.0,
					"id" : "obj-94",
					"maxclass" : "newobj",
					"numinlets" : 2,
					"numoutlets" : 1,
					"outlettype" : [ "int" ],
					"patching_rect" : [ 1285.0, 655.0, 34.0, 22.0 ],
					"text" : "/ 5"
				}

			}
, 			{
				"box" : 				{
					"fontname" : "Arial",
					"fontsize" : 12.0,
					"id" : "obj-95",
					"maxclass" : "newobj",
					"numinlets" : 5,
					"numoutlets" : 4,
					"outlettype" : [ "int", "", "", "int" ],
					"patching_rect" : [ 1285.0, 618.0, 61.0, 22.0 ],
					"text" : "counter"
				}

			}
, 			{
				"box" : 				{
					"color" : [ 0.427450980392157, 0.843137254901961, 1.0, 1.0 ],
					"fontname" : "Arial Bold",
					"fontsize" : 10.0,
					"id" : "obj-106",
					"maxclass" : "newobj",
					"numinlets" : 1,
					"numoutlets" : 4,
					"outlettype" : [ "", "", "", "" ],
					"patching_rect" : [ 322.0, 557.347450613975525, 94.0, 20.0 ],
					"saved_attribute_attributes" : 					{
						"color" : 						{
							"expression" : "themecolor.live_value_arc"
						}

					}
,
					"saved_newobj_attribute_attributes" : 					{
						"color" : 						{
							"expression" : "themecolor.live_value_arc"
						}

					}
,
					"saved_object_attributes" : 					{
						"embed" : 0,
						"precision" : 6
					}
,
					"text" : "coll LengthValues",
					"varname" : "LoopLengthValues"
				}

			}
, 			{
				"box" : 				{
					"id" : "obj-23",
					"maxclass" : "newobj",
					"numinlets" : 2,
					"numoutlets" : 1,
					"outlettype" : [ "int" ],
					"patching_rect" : [ 425.0, 557.347450613975525, 29.5, 20.0 ],
					"text" : "== 0"
				}

			}
, 			{
				"box" : 				{
					"id" : "obj-22",
					"maxclass" : "newobj",
					"numinlets" : 1,
					"numoutlets" : 1,
					"outlettype" : [ "" ],
					"patching_rect" : [ 470.0, 601.0, 79.0, 20.0 ],
					"text" : "prepend active"
				}

			}
, 			{
				"box" : 				{
					"fontname" : "Arial Bold",
					"fontsize" : 10.0,
					"id" : "obj-37",
					"maxclass" : "comment",
					"numinlets" : 1,
					"numoutlets" : 0,
					"patching_rect" : [ 390.0, 511.347450613975525, 72.0, 18.0 ],
					"presentation" : 1,
					"presentation_rect" : [ 187.794424533843994, 5.844155788421631, 66.0, 18.0 ],
					"text" : "Loop length",
					"textjustification" : 1
				}

			}
, 			{
				"box" : 				{
					"annotation" : "",
					"hint" : "",
					"id" : "obj-38",
					"maxclass" : "live.menu",
					"numinlets" : 1,
					"numoutlets" : 3,
					"outlettype" : [ "", "", "float" ],
					"parameter_enable" : 1,
					"patching_rect" : [ 322.0, 512.347450613975525, 53.0, 15.0 ],
					"presentation" : 1,
					"presentation_rect" : [ 195.544424533843994, 26.844155788421631, 50.5, 15.0 ],
					"saved_attribute_attributes" : 					{
						"valueof" : 						{
							"parameter_enum" : [ "Free", "1 Bar", "2  Bar", "3 Bar", "4 Bar", "5 Bar", "6 Bar", "7 Bar", "8 Bar" ],
							"parameter_initial" : [ 4 ],
							"parameter_initial_enable" : 1,
							"parameter_linknames" : 1,
							"parameter_longname" : "Beat per Loop",
							"parameter_mmax" : 8,
							"parameter_modmode" : 0,
							"parameter_shortname" : "BeatsPerLoop",
							"parameter_speedlim" : 0.0,
							"parameter_type" : 2
						}

					}
,
					"varname" : "Beat per Loop"
				}

			}
, 			{
				"box" : 				{
					"id" : "obj-36",
					"maxclass" : "newobj",
					"numinlets" : 2,
					"numoutlets" : 1,
					"outlettype" : [ "float" ],
					"patching_rect" : [ 297.0, 607.347450613975525, 44.0, 20.0 ],
					"text" : "* 4."
				}

			}
, 			{
				"box" : 				{
					"id" : "obj-25",
					"maxclass" : "newobj",
					"numinlets" : 2,
					"numoutlets" : 1,
					"outlettype" : [ "float" ],
					"patching_rect" : [ 297.0, 444.347450613975525, 29.5, 20.0 ],
					"text" : "/ 1."
				}

			}
, 			{
				"box" : 				{
					"id" : "obj-16",
					"maxclass" : "newobj",
					"numinlets" : 1,
					"numoutlets" : 2,
					"outlettype" : [ "float", "float" ],
					"patching_rect" : [ 348.0, 406.347450613975525, 56.0, 20.0 ],
					"text" : "unpack f f"
				}

			}
, 			{
				"box" : 				{
					"id" : "obj-15",
					"maxclass" : "newobj",
					"numinlets" : 2,
					"numoutlets" : 1,
					"outlettype" : [ "float" ],
					"patching_rect" : [ 297.0, 406.347450613975525, 29.5, 20.0 ],
					"text" : "/ 60."
				}

			}
, 			{
				"box" : 				{
					"color" : [ 0.741176470588235, 0.184313725490196, 0.756862745098039, 1.0 ],
					"id" : "obj-169",
					"maxclass" : "newobj",
					"numinlets" : 1,
					"numoutlets" : 0,
					"patching_rect" : [ 1285.0, 753.0, 40.0, 20.0 ],
					"text" : "s bass"
				}

			}
, 			{
				"box" : 				{
					"fontname" : "Arial Bold Italic",
					"fontsize" : 18.0,
					"id" : "obj-72",
					"maxclass" : "comment",
					"numinlets" : 1,
					"numoutlets" : 0,
					"patching_rect" : [ 87.0, 208.0, 112.0, 27.0 ],
					"prototypename" : "M4L.subpatcher-title",
					"text" : "Controls",
					"textcolor" : [ 0.3, 0.34, 0.4, 1.0 ]
				}

			}
, 			{
				"box" : 				{
					"id" : "obj-19",
					"maxclass" : "newobj",
					"numinlets" : 2,
					"numoutlets" : 1,
					"outlettype" : [ "int" ],
					"patching_rect" : [ 145.0, 433.347450613975525, 34.0, 20.0 ],
					"text" : "== 1"
				}

			}
, 			{
				"box" : 				{
					"id" : "obj-18",
					"maxclass" : "newobj",
					"numinlets" : 2,
					"numoutlets" : 1,
					"outlettype" : [ "" ],
					"patching_rect" : [ 145.0, 462.347450613975525, 34.0, 20.0 ],
					"text" : "gate"
				}

			}
, 			{
				"box" : 				{
					"id" : "obj-13",
					"maxclass" : "newobj",
					"numinlets" : 1,
					"numoutlets" : 1,
					"outlettype" : [ "bang" ],
					"patching_rect" : [ 145.0, 488.347450613975525, 25.0, 20.0 ],
					"text" : "t b"
				}

			}
, 			{
				"box" : 				{
					"id" : "obj-12",
					"maxclass" : "toggle",
					"numinlets" : 1,
					"numoutlets" : 1,
					"outlettype" : [ "int" ],
					"parameter_enable" : 0,
					"patching_rect" : [ 28.0, 336.347450613975525, 24.0, 24.0 ]
				}

			}
, 			{
				"box" : 				{
					"fontface" : 1,
					"fontname" : "Arial",
					"fontsize" : 10.0,
					"id" : "obj-6",
					"maxclass" : "newobj",
					"numinlets" : 2,
					"numoutlets" : 1,
					"outlettype" : [ "bang" ],
					"patching_rect" : [ 64.0, 337.347450613975525, 99.0, 20.0 ],
					"text" : "metro 10 @active 1"
				}

			}
, 			{
				"box" : 				{
					"id" : "obj-69",
					"maxclass" : "live.dial",
					"numinlets" : 1,
					"numoutlets" : 2,
					"outlettype" : [ "", "float" ],
					"parameter_enable" : 1,
					"patching_rect" : [ 789.0, 321.347450613975525, 41.0, 48.0 ],
					"presentation" : 1,
					"presentation_rect" : [ 113.636362552642822, 61.688311100006104, 41.0, 48.0 ],
					"saved_attribute_attributes" : 					{
						"valueof" : 						{
							"parameter_initial" : [ 6.0 ],
							"parameter_initial_enable" : 1,
							"parameter_longname" : "Shift",
							"parameter_mmax" : 12.5,
							"parameter_mmin" : -12.5,
							"parameter_modmode" : 3,
							"parameter_shortname" : "Shift",
							"parameter_type" : 0,
							"parameter_units" : "‰",
							"parameter_unitstyle" : 9
						}

					}
,
					"varname" : "live.dial[2]"
				}

			}
, 			{
				"box" : 				{
					"id" : "obj-219",
					"maxclass" : "live.dial",
					"numinlets" : 1,
					"numoutlets" : 2,
					"outlettype" : [ "", "float" ],
					"parameter_enable" : 1,
					"patching_rect" : [ 676.0, 321.347450613975525, 41.0, 48.0 ],
					"presentation" : 1,
					"presentation_rect" : [ 57.79220724105835, 61.688311100006104, 41.0, 48.0 ],
					"saved_attribute_attributes" : 					{
						"valueof" : 						{
							"parameter_initial" : [ 0.0 ],
							"parameter_initial_enable" : 1,
							"parameter_longname" : "Phase",
							"parameter_mmax" : 50.0,
							"parameter_mmin" : -50.0,
							"parameter_modmode" : 3,
							"parameter_shortname" : "Phase",
							"parameter_type" : 0,
							"parameter_units" : "%",
							"parameter_unitstyle" : 9
						}

					}
,
					"varname" : "Phase"
				}

			}
, 			{
				"box" : 				{
					"id" : "obj-26",
					"maxclass" : "live.dial",
					"numinlets" : 1,
					"numoutlets" : 2,
					"outlettype" : [ "", "float" ],
					"parameter_enable" : 1,
					"patching_rect" : [ 623.0, 321.347450613975525, 41.0, 48.0 ],
					"presentation" : 1,
					"presentation_rect" : [ 4.545454502105713, 61.688311100006104, 41.0, 48.0 ],
					"saved_attribute_attributes" : 					{
						"valueof" : 						{
							"parameter_initial" : [ 6.0 ],
							"parameter_initial_enable" : 1,
							"parameter_longname" : "Loop Length (s)",
							"parameter_mmax" : 20.0,
							"parameter_mmin" : 0.5,
							"parameter_modmode" : 3,
							"parameter_shortname" : "Loop (s)",
							"parameter_type" : 0,
							"parameter_unitstyle" : 1
						}

					}
,
					"varname" : "live.dial"
				}

			}
, 			{
				"box" : 				{
					"id" : "obj-217",
					"maxclass" : "newobj",
					"numinlets" : 7,
					"numoutlets" : 3,
					"outlettype" : [ "bang", "", "" ],
					"patcher" : 					{
						"fileversion" : 1,
						"appversion" : 						{
							"major" : 8,
							"minor" : 6,
							"revision" : 2,
							"architecture" : "x64",
							"modernui" : 1
						}
,
						"classnamespace" : "box",
						"rect" : [ 1921.0, 471.0, 1306.0, 879.0 ],
						"bglocked" : 0,
						"openinpresentation" : 0,
						"default_fontsize" : 12.0,
						"default_fontface" : 0,
						"default_fontname" : "Arial",
						"gridonopen" : 1,
						"gridsize" : [ 15.0, 15.0 ],
						"gridsnaponopen" : 1,
						"objectsnaponopen" : 1,
						"statusbarvisible" : 2,
						"toolbarvisible" : 1,
						"lefttoolbarpinned" : 0,
						"toptoolbarpinned" : 0,
						"righttoolbarpinned" : 0,
						"bottomtoolbarpinned" : 0,
						"toolbars_unpinned_last_save" : 0,
						"tallnewobj" : 0,
						"boxanimatetime" : 200,
						"enablehscroll" : 1,
						"enablevscroll" : 1,
						"devicewidth" : 0.0,
						"description" : "",
						"digest" : "",
						"tags" : "",
						"style" : "",
						"subpatcher_template" : "",
						"assistshowspatchername" : 0,
						"boxes" : [ 							{
								"box" : 								{
									"id" : "obj-22",
									"maxclass" : "message",
									"numinlets" : 2,
									"numoutlets" : 1,
									"outlettype" : [ "" ],
									"patching_rect" : [ 233.0, 133.0, 29.5, 22.0 ],
									"text" : "0"
								}

							}
, 							{
								"box" : 								{
									"id" : "obj-8",
									"maxclass" : "comment",
									"numinlets" : 1,
									"numoutlets" : 0,
									"patching_rect" : [ 1005.5, 4.0, 107.0, 20.0 ],
									"text" : "Waveform Index"
								}

							}
, 							{
								"box" : 								{
									"comment" : "Waveform",
									"id" : "obj-9",
									"index" : 7,
									"maxclass" : "inlet",
									"numinlets" : 0,
									"numoutlets" : 1,
									"outlettype" : [ "" ],
									"patching_rect" : [ 1044.0, 29.0, 30.0, 30.0 ]
								}

							}
, 							{
								"box" : 								{
									"id" : "obj-37",
									"maxclass" : "newobj",
									"numinlets" : 2,
									"numoutlets" : 1,
									"outlettype" : [ "bang" ],
									"patching_rect" : [ 543.0, 44.0, 113.0, 22.0 ],
									"text" : "metro 50 @active 1"
								}

							}
, 							{
								"box" : 								{
									"id" : "obj-32",
									"maxclass" : "comment",
									"numinlets" : 1,
									"numoutlets" : 0,
									"patching_rect" : [ 907.0, 4.0, 63.0, 20.0 ],
									"text" : "On / Off"
								}

							}
, 							{
								"box" : 								{
									"comment" : "On_Off",
									"id" : "obj-34",
									"index" : 6,
									"maxclass" : "inlet",
									"numinlets" : 0,
									"numoutlets" : 1,
									"outlettype" : [ "int" ],
									"patching_rect" : [ 916.0, 29.0, 30.0, 30.0 ]
								}

							}
, 							{
								"box" : 								{
									"id" : "obj-26",
									"maxclass" : "newobj",
									"numinlets" : 2,
									"numoutlets" : 1,
									"outlettype" : [ "" ],
									"patching_rect" : [ 916.0, 155.0, 63.0, 22.0 ],
									"text" : "gate"
								}

							}
, 							{
								"box" : 								{
									"id" : "obj-11",
									"maxclass" : "message",
									"numinlets" : 2,
									"numoutlets" : 1,
									"outlettype" : [ "" ],
									"patching_rect" : [ 543.0, 86.0, 29.5, 22.0 ],
									"text" : "0"
								}

							}
, 							{
								"box" : 								{
									"id" : "obj-35",
									"maxclass" : "newobj",
									"numinlets" : 2,
									"numoutlets" : 1,
									"outlettype" : [ "float" ],
									"patching_rect" : [ 350.0, 228.0, 36.0, 22.0 ],
									"text" : "+ 16."
								}

							}
, 							{
								"box" : 								{
									"id" : "obj-6",
									"maxclass" : "newobj",
									"numinlets" : 2,
									"numoutlets" : 1,
									"outlettype" : [ "float" ],
									"patching_rect" : [ 327.0, 86.0, 40.0, 22.0 ],
									"text" : "* 0.01"
								}

							}
, 							{
								"box" : 								{
									"id" : "obj-2",
									"maxclass" : "comment",
									"numinlets" : 1,
									"numoutlets" : 0,
									"patching_rect" : [ 703.0, 4.0, 48.0, 20.0 ],
									"text" : "Steps"
								}

							}
, 							{
								"box" : 								{
									"comment" : "Steps",
									"id" : "obj-1",
									"index" : 4,
									"maxclass" : "inlet",
									"numinlets" : 0,
									"numoutlets" : 1,
									"outlettype" : [ "" ],
									"patching_rect" : [ 712.0, 29.0, 30.0, 30.0 ]
								}

							}
, 							{
								"box" : 								{
									"id" : "obj-70",
									"maxclass" : "newobj",
									"numinlets" : 2,
									"numoutlets" : 1,
									"outlettype" : [ "float" ],
									"patching_rect" : [ 416.0, 86.0, 47.0, 22.0 ],
									"text" : "* 0.001"
								}

							}
, 							{
								"box" : 								{
									"id" : "obj-62",
									"maxclass" : "comment",
									"numinlets" : 1,
									"numoutlets" : 0,
									"patching_rect" : [ 247.5, 1155.0, 121.0, 20.0 ],
									"text" : "Vizualisation Out"
								}

							}
, 							{
								"box" : 								{
									"id" : "obj-61",
									"maxclass" : "comment",
									"numinlets" : 1,
									"numoutlets" : 0,
									"patching_rect" : [ 153.5, 1155.0, 78.0, 20.0 ],
									"text" : "Notes Out"
								}

							}
, 							{
								"box" : 								{
									"id" : "obj-60",
									"maxclass" : "comment",
									"numinlets" : 1,
									"numoutlets" : 0,
									"patching_rect" : [ 26.5, 1155.0, 114.0, 20.0 ],
									"text" : "Bass Trigger Out"
								}

							}
, 							{
								"box" : 								{
									"id" : "obj-55",
									"maxclass" : "comment",
									"numinlets" : 1,
									"numoutlets" : 0,
									"patching_rect" : [ 817.0, 4.0, 48.0, 20.0 ],
									"text" : "Reset"
								}

							}
, 							{
								"box" : 								{
									"comment" : "Reset In",
									"id" : "obj-54",
									"index" : 5,
									"maxclass" : "inlet",
									"numinlets" : 0,
									"numoutlets" : 1,
									"outlettype" : [ "bang" ],
									"patching_rect" : [ 826.0, 29.0, 30.0, 30.0 ]
								}

							}
, 							{
								"box" : 								{
									"id" : "obj-48",
									"maxclass" : "comment",
									"numinlets" : 1,
									"numoutlets" : 0,
									"patching_rect" : [ 399.0, 4.0, 73.0, 20.0 ],
									"text" : "Phase Shift"
								}

							}
, 							{
								"box" : 								{
									"id" : "obj-47",
									"maxclass" : "comment",
									"numinlets" : 1,
									"numoutlets" : 0,
									"patching_rect" : [ 321.0, 4.0, 45.0, 20.0 ],
									"text" : "Phase"
								}

							}
, 							{
								"box" : 								{
									"id" : "obj-46",
									"maxclass" : "comment",
									"numinlets" : 1,
									"numoutlets" : 0,
									"patching_rect" : [ 194.0, 4.0, 42.0, 20.0 ],
									"text" : "Loop"
								}

							}
, 							{
								"box" : 								{
									"comment" : "Loop Bang",
									"id" : "obj-45",
									"index" : 1,
									"maxclass" : "outlet",
									"numinlets" : 1,
									"numoutlets" : 0,
									"patching_rect" : [ 60.0, 1122.0, 29.0, 29.0 ]
								}

							}
, 							{
								"box" : 								{
									"id" : "obj-44",
									"maxclass" : "button",
									"numinlets" : 1,
									"numoutlets" : 1,
									"outlettype" : [ "bang" ],
									"parameter_enable" : 0,
									"patching_rect" : [ 60.0, 1050.0, 23.0, 23.0 ]
								}

							}
, 							{
								"box" : 								{
									"comment" : "Loop Phase increase per Loop (Deg)",
									"id" : "obj-7",
									"index" : 3,
									"maxclass" : "inlet",
									"numinlets" : 0,
									"numoutlets" : 1,
									"outlettype" : [ "" ],
									"patching_rect" : [ 416.0, 29.0, 30.0, 30.0 ]
								}

							}
, 							{
								"box" : 								{
									"comment" : "Loop Phase at Start (Deg)",
									"id" : "obj-5",
									"index" : 2,
									"maxclass" : "inlet",
									"numinlets" : 0,
									"numoutlets" : 1,
									"outlettype" : [ "float" ],
									"patching_rect" : [ 327.0, 29.0, 30.0, 30.0 ]
								}

							}
, 							{
								"box" : 								{
									"comment" : "Loop Length",
									"id" : "obj-4",
									"index" : 1,
									"maxclass" : "inlet",
									"numinlets" : 0,
									"numoutlets" : 1,
									"outlettype" : [ "" ],
									"patching_rect" : [ 200.0, 29.0, 30.0, 30.0 ]
								}

							}
, 							{
								"box" : 								{
									"color" : [ 1.0, 0.345098039215686, 0.298039215686275, 1.0 ],
									"id" : "obj-3",
									"maxclass" : "newobj",
									"numinlets" : 0,
									"numoutlets" : 1,
									"outlettype" : [ "" ],
									"patching_rect" : [ 960.0, 85.0, 50.0, 22.0 ],
									"saved_attribute_attributes" : 									{
										"color" : 										{
											"expression" : "themecolor.live_active_automation"
										}

									}
,
									"saved_newobj_attribute_attributes" : 									{
										"color" : 										{
											"expression" : "themecolor.live_active_automation"
										}

									}
,
									"text" : "r Tbang"
								}

							}
, 							{
								"box" : 								{
									"id" : "obj-21",
									"maxclass" : "newobj",
									"numinlets" : 7,
									"numoutlets" : 9,
									"outlettype" : [ "", "", "float", "float", "float", "int", "", "bang", "" ],
									"patching_rect" : [ 633.799999999999955, 997.0, 68.0, 22.0 ],
									"text" : "phase_gen"
								}

							}
, 							{
								"box" : 								{
									"id" : "obj-23",
									"maxclass" : "newobj",
									"numinlets" : 7,
									"numoutlets" : 9,
									"outlettype" : [ "", "", "float", "float", "float", "int", "", "bang", "" ],
									"patching_rect" : [ 633.799999999999955, 949.0, 68.0, 22.0 ],
									"text" : "phase_gen"
								}

							}
, 							{
								"box" : 								{
									"id" : "obj-24",
									"maxclass" : "newobj",
									"numinlets" : 7,
									"numoutlets" : 9,
									"outlettype" : [ "", "", "float", "float", "float", "int", "", "bang", "" ],
									"patching_rect" : [ 633.799999999999955, 901.0, 68.0, 22.0 ],
									"text" : "phase_gen"
								}

							}
, 							{
								"box" : 								{
									"id" : "obj-25",
									"maxclass" : "newobj",
									"numinlets" : 7,
									"numoutlets" : 9,
									"outlettype" : [ "", "", "float", "float", "float", "int", "", "bang", "" ],
									"patching_rect" : [ 633.799999999999955, 853.0, 68.0, 22.0 ],
									"text" : "phase_gen"
								}

							}
, 							{
								"box" : 								{
									"id" : "obj-27",
									"maxclass" : "newobj",
									"numinlets" : 7,
									"numoutlets" : 9,
									"outlettype" : [ "", "", "float", "float", "float", "int", "", "bang", "" ],
									"patching_rect" : [ 633.799999999999955, 805.0, 68.0, 22.0 ],
									"text" : "phase_gen"
								}

							}
, 							{
								"box" : 								{
									"id" : "obj-28",
									"maxclass" : "newobj",
									"numinlets" : 7,
									"numoutlets" : 9,
									"outlettype" : [ "", "", "float", "float", "float", "int", "", "bang", "" ],
									"patching_rect" : [ 633.799999999999955, 757.0, 68.0, 22.0 ],
									"text" : "phase_gen"
								}

							}
, 							{
								"box" : 								{
									"id" : "obj-31",
									"maxclass" : "newobj",
									"numinlets" : 7,
									"numoutlets" : 9,
									"outlettype" : [ "", "", "float", "float", "float", "int", "", "bang", "" ],
									"patching_rect" : [ 633.799999999999955, 709.0, 68.0, 22.0 ],
									"text" : "phase_gen"
								}

							}
, 							{
								"box" : 								{
									"id" : "obj-36",
									"maxclass" : "newobj",
									"numinlets" : 7,
									"numoutlets" : 9,
									"outlettype" : [ "", "", "float", "float", "float", "int", "", "bang", "" ],
									"patching_rect" : [ 633.799999999999955, 661.0, 68.0, 22.0 ],
									"text" : "phase_gen"
								}

							}
, 							{
								"box" : 								{
									"id" : "obj-17",
									"maxclass" : "newobj",
									"numinlets" : 7,
									"numoutlets" : 9,
									"outlettype" : [ "", "", "float", "float", "float", "int", "", "bang", "" ],
									"patching_rect" : [ 633.799999999999955, 613.0, 68.0, 22.0 ],
									"text" : "phase_gen"
								}

							}
, 							{
								"box" : 								{
									"id" : "obj-18",
									"maxclass" : "newobj",
									"numinlets" : 7,
									"numoutlets" : 9,
									"outlettype" : [ "", "", "float", "float", "float", "int", "", "bang", "" ],
									"patching_rect" : [ 633.799999999999955, 565.0, 68.0, 22.0 ],
									"text" : "phase_gen"
								}

							}
, 							{
								"box" : 								{
									"id" : "obj-19",
									"maxclass" : "newobj",
									"numinlets" : 7,
									"numoutlets" : 9,
									"outlettype" : [ "", "", "float", "float", "float", "int", "", "bang", "" ],
									"patching_rect" : [ 633.799999999999955, 517.0, 68.0, 22.0 ],
									"text" : "phase_gen"
								}

							}
, 							{
								"box" : 								{
									"id" : "obj-20",
									"maxclass" : "newobj",
									"numinlets" : 7,
									"numoutlets" : 9,
									"outlettype" : [ "", "", "float", "float", "float", "int", "", "bang", "" ],
									"patching_rect" : [ 633.799999999999955, 469.0, 68.0, 22.0 ],
									"text" : "phase_gen"
								}

							}
, 							{
								"box" : 								{
									"id" : "obj-15",
									"maxclass" : "newobj",
									"numinlets" : 7,
									"numoutlets" : 9,
									"outlettype" : [ "", "", "float", "float", "float", "int", "", "bang", "" ],
									"patching_rect" : [ 633.799999999999955, 421.0, 68.0, 22.0 ],
									"text" : "phase_gen"
								}

							}
, 							{
								"box" : 								{
									"id" : "obj-16",
									"maxclass" : "newobj",
									"numinlets" : 7,
									"numoutlets" : 9,
									"outlettype" : [ "", "", "float", "float", "float", "int", "", "bang", "" ],
									"patching_rect" : [ 633.799999999999955, 373.0, 68.0, 22.0 ],
									"text" : "phase_gen"
								}

							}
, 							{
								"box" : 								{
									"id" : "obj-13",
									"maxclass" : "newobj",
									"numinlets" : 7,
									"numoutlets" : 9,
									"outlettype" : [ "", "", "float", "float", "float", "int", "", "bang", "" ],
									"patching_rect" : [ 633.799999999999955, 325.0, 68.0, 22.0 ],
									"text" : "phase_gen"
								}

							}
, 							{
								"box" : 								{
									"id" : "obj-78",
									"maxclass" : "newobj",
									"numinlets" : 7,
									"numoutlets" : 9,
									"outlettype" : [ "", "", "float", "float", "float", "int", "", "bang", "" ],
									"patching_rect" : [ 633.799999999999955, 277.0, 68.0, 22.0 ],
									"text" : "phase_gen"
								}

							}
, 							{
								"box" : 								{
									"id" : "obj-10",
									"maxclass" : "newobj",
									"numinlets" : 2,
									"numoutlets" : 1,
									"outlettype" : [ "float" ],
									"patching_rect" : [ 292.0, 228.0, 29.5, 22.0 ],
									"text" : "* 2."
								}

							}
, 							{
								"box" : 								{
									"id" : "obj-215",
									"maxclass" : "newobj",
									"numinlets" : 16,
									"numoutlets" : 1,
									"outlettype" : [ "" ],
									"patching_rect" : [ 282.0, 1072.0, 247.0, 22.0 ],
									"text" : "pack 0. 0. 0. 0. 0. 0. 0. 0. 0. 0. 0. 0. 0. 0. 0. 0."
								}

							}
, 							{
								"box" : 								{
									"id" : "obj-133",
									"maxclass" : "newobj",
									"numinlets" : 2,
									"numoutlets" : 1,
									"outlettype" : [ "signal" ],
									"patching_rect" : [ 200.0, 163.0, 52.0, 22.0 ],
									"text" : "phasor~"
								}

							}
, 							{
								"box" : 								{
									"id" : "obj-33",
									"maxclass" : "newobj",
									"numinlets" : 1,
									"numoutlets" : 1,
									"outlettype" : [ "" ],
									"patching_rect" : [ 200.0, 86.0, 101.0, 22.0 ],
									"text" : "expr 1. / ($f1 * 2.)"
								}

							}
, 							{
								"box" : 								{
									"id" : "obj-14",
									"maxclass" : "newobj",
									"numinlets" : 2,
									"numoutlets" : 1,
									"outlettype" : [ "float" ],
									"patching_rect" : [ 200.0, 228.0, 64.0, 22.0 ],
									"text" : "snapshot~"
								}

							}
, 							{
								"box" : 								{
									"comment" : "Step Index Out",
									"id" : "obj-205",
									"index" : 2,
									"maxclass" : "outlet",
									"numinlets" : 1,
									"numoutlets" : 0,
									"patching_rect" : [ 180.0, 1124.0, 29.0, 29.0 ]
								}

							}
, 							{
								"box" : 								{
									"comment" : "per step value",
									"id" : "obj-216",
									"index" : 3,
									"maxclass" : "outlet",
									"numinlets" : 1,
									"numoutlets" : 0,
									"patching_rect" : [ 282.0, 1124.0, 29.0, 29.0 ]
								}

							}
 ],
						"lines" : [ 							{
								"patchline" : 								{
									"destination" : [ "obj-78", 4 ],
									"midpoints" : [ 721.5, 141.0, 675.966666666666583, 141.0 ],
									"source" : [ "obj-1", 0 ]
								}

							}
, 							{
								"patchline" : 								{
									"destination" : [ "obj-35", 0 ],
									"midpoints" : [ 301.5, 259.0, 336.0, 259.0, 336.0, 216.0, 359.5, 216.0 ],
									"source" : [ "obj-10", 0 ]
								}

							}
, 							{
								"patchline" : 								{
									"destination" : [ "obj-78", 3 ],
									"midpoints" : [ 552.5, 141.0, 667.799999999999955, 141.0 ],
									"source" : [ "obj-11", 0 ]
								}

							}
, 							{
								"patchline" : 								{
									"destination" : [ "obj-16", 6 ],
									"source" : [ "obj-13", 8 ]
								}

							}
, 							{
								"patchline" : 								{
									"destination" : [ "obj-16", 5 ],
									"source" : [ "obj-13", 7 ]
								}

							}
, 							{
								"patchline" : 								{
									"destination" : [ "obj-16", 4 ],
									"source" : [ "obj-13", 6 ]
								}

							}
, 							{
								"patchline" : 								{
									"destination" : [ "obj-16", 3 ],
									"source" : [ "obj-13", 5 ]
								}

							}
, 							{
								"patchline" : 								{
									"destination" : [ "obj-16", 2 ],
									"source" : [ "obj-13", 4 ]
								}

							}
, 							{
								"patchline" : 								{
									"destination" : [ "obj-16", 1 ],
									"source" : [ "obj-13", 3 ]
								}

							}
, 							{
								"patchline" : 								{
									"destination" : [ "obj-16", 0 ],
									"source" : [ "obj-13", 2 ]
								}

							}
, 							{
								"patchline" : 								{
									"destination" : [ "obj-205", 0 ],
									"midpoints" : [ 643.299999999999955, 357.0, 540.0, 357.0, 540.0, 357.0, 189.0, 357.0, 189.0, 1110.0, 189.5, 1110.0 ],
									"source" : [ "obj-13", 0 ]
								}

							}
, 							{
								"patchline" : 								{
									"destination" : [ "obj-215", 1 ],
									"midpoints" : [ 649.424999999999955, 365.0, 306.699999999999989, 365.0 ],
									"source" : [ "obj-13", 1 ]
								}

							}
, 							{
								"patchline" : 								{
									"destination" : [ "obj-14", 0 ],
									"source" : [ "obj-133", 0 ]
								}

							}
, 							{
								"patchline" : 								{
									"destination" : [ "obj-10", 0 ],
									"midpoints" : [ 209.5, 260.0, 279.0, 260.0, 279.0, 214.0, 301.5, 214.0 ],
									"source" : [ "obj-14", 0 ]
								}

							}
, 							{
								"patchline" : 								{
									"destination" : [ "obj-20", 6 ],
									"source" : [ "obj-15", 8 ]
								}

							}
, 							{
								"patchline" : 								{
									"destination" : [ "obj-20", 5 ],
									"source" : [ "obj-15", 7 ]
								}

							}
, 							{
								"patchline" : 								{
									"destination" : [ "obj-20", 4 ],
									"source" : [ "obj-15", 6 ]
								}

							}
, 							{
								"patchline" : 								{
									"destination" : [ "obj-20", 3 ],
									"source" : [ "obj-15", 5 ]
								}

							}
, 							{
								"patchline" : 								{
									"destination" : [ "obj-20", 2 ],
									"source" : [ "obj-15", 4 ]
								}

							}
, 							{
								"patchline" : 								{
									"destination" : [ "obj-20", 1 ],
									"source" : [ "obj-15", 3 ]
								}

							}
, 							{
								"patchline" : 								{
									"destination" : [ "obj-20", 0 ],
									"source" : [ "obj-15", 2 ]
								}

							}
, 							{
								"patchline" : 								{
									"destination" : [ "obj-205", 0 ],
									"midpoints" : [ 643.299999999999955, 453.0, 540.0, 453.0, 540.0, 453.0, 189.0, 453.0, 189.0, 1110.0, 189.5, 1110.0 ],
									"source" : [ "obj-15", 0 ]
								}

							}
, 							{
								"patchline" : 								{
									"destination" : [ "obj-215", 3 ],
									"midpoints" : [ 649.424999999999955, 462.0, 337.100000000000023, 462.0 ],
									"source" : [ "obj-15", 1 ]
								}

							}
, 							{
								"patchline" : 								{
									"destination" : [ "obj-15", 6 ],
									"source" : [ "obj-16", 8 ]
								}

							}
, 							{
								"patchline" : 								{
									"destination" : [ "obj-15", 5 ],
									"source" : [ "obj-16", 7 ]
								}

							}
, 							{
								"patchline" : 								{
									"destination" : [ "obj-15", 4 ],
									"source" : [ "obj-16", 6 ]
								}

							}
, 							{
								"patchline" : 								{
									"destination" : [ "obj-15", 3 ],
									"source" : [ "obj-16", 5 ]
								}

							}
, 							{
								"patchline" : 								{
									"destination" : [ "obj-15", 2 ],
									"source" : [ "obj-16", 4 ]
								}

							}
, 							{
								"patchline" : 								{
									"destination" : [ "obj-15", 1 ],
									"source" : [ "obj-16", 3 ]
								}

							}
, 							{
								"patchline" : 								{
									"destination" : [ "obj-15", 0 ],
									"source" : [ "obj-16", 2 ]
								}

							}
, 							{
								"patchline" : 								{
									"destination" : [ "obj-205", 0 ],
									"midpoints" : [ 643.299999999999955, 405.0, 540.0, 405.0, 540.0, 405.0, 189.0, 405.0, 189.0, 1110.0, 189.5, 1110.0 ],
									"source" : [ "obj-16", 0 ]
								}

							}
, 							{
								"patchline" : 								{
									"destination" : [ "obj-215", 2 ],
									"midpoints" : [ 649.424999999999955, 415.0, 321.899999999999977, 415.0 ],
									"source" : [ "obj-16", 1 ]
								}

							}
, 							{
								"patchline" : 								{
									"destination" : [ "obj-205", 0 ],
									"midpoints" : [ 643.299999999999955, 645.0, 540.0, 645.0, 540.0, 645.0, 189.666666626930237, 645.0, 189.666666626930237, 1110.0, 189.5, 1110.0 ],
									"source" : [ "obj-17", 0 ]
								}

							}
, 							{
								"patchline" : 								{
									"destination" : [ "obj-215", 7 ],
									"midpoints" : [ 649.424999999999955, 652.0, 397.899999999999977, 652.0 ],
									"source" : [ "obj-17", 1 ]
								}

							}
, 							{
								"patchline" : 								{
									"destination" : [ "obj-36", 6 ],
									"source" : [ "obj-17", 8 ]
								}

							}
, 							{
								"patchline" : 								{
									"destination" : [ "obj-36", 5 ],
									"source" : [ "obj-17", 7 ]
								}

							}
, 							{
								"patchline" : 								{
									"destination" : [ "obj-36", 4 ],
									"source" : [ "obj-17", 6 ]
								}

							}
, 							{
								"patchline" : 								{
									"destination" : [ "obj-36", 3 ],
									"source" : [ "obj-17", 5 ]
								}

							}
, 							{
								"patchline" : 								{
									"destination" : [ "obj-36", 2 ],
									"source" : [ "obj-17", 4 ]
								}

							}
, 							{
								"patchline" : 								{
									"destination" : [ "obj-36", 1 ],
									"source" : [ "obj-17", 3 ]
								}

							}
, 							{
								"patchline" : 								{
									"destination" : [ "obj-36", 0 ],
									"source" : [ "obj-17", 2 ]
								}

							}
, 							{
								"patchline" : 								{
									"destination" : [ "obj-17", 6 ],
									"source" : [ "obj-18", 8 ]
								}

							}
, 							{
								"patchline" : 								{
									"destination" : [ "obj-17", 5 ],
									"source" : [ "obj-18", 7 ]
								}

							}
, 							{
								"patchline" : 								{
									"destination" : [ "obj-17", 4 ],
									"source" : [ "obj-18", 6 ]
								}

							}
, 							{
								"patchline" : 								{
									"destination" : [ "obj-17", 3 ],
									"source" : [ "obj-18", 5 ]
								}

							}
, 							{
								"patchline" : 								{
									"destination" : [ "obj-17", 2 ],
									"source" : [ "obj-18", 4 ]
								}

							}
, 							{
								"patchline" : 								{
									"destination" : [ "obj-17", 1 ],
									"source" : [ "obj-18", 3 ]
								}

							}
, 							{
								"patchline" : 								{
									"destination" : [ "obj-17", 0 ],
									"source" : [ "obj-18", 2 ]
								}

							}
, 							{
								"patchline" : 								{
									"destination" : [ "obj-205", 0 ],
									"midpoints" : [ 643.299999999999955, 597.0, 540.0, 597.0, 540.0, 597.0, 189.083333283662796, 597.0, 189.083333283662796, 1110.0, 189.5, 1110.0 ],
									"source" : [ "obj-18", 0 ]
								}

							}
, 							{
								"patchline" : 								{
									"destination" : [ "obj-215", 6 ],
									"midpoints" : [ 649.424999999999955, 605.0, 382.699999999999989, 605.0 ],
									"source" : [ "obj-18", 1 ]
								}

							}
, 							{
								"patchline" : 								{
									"destination" : [ "obj-18", 6 ],
									"source" : [ "obj-19", 8 ]
								}

							}
, 							{
								"patchline" : 								{
									"destination" : [ "obj-18", 5 ],
									"source" : [ "obj-19", 7 ]
								}

							}
, 							{
								"patchline" : 								{
									"destination" : [ "obj-18", 4 ],
									"source" : [ "obj-19", 6 ]
								}

							}
, 							{
								"patchline" : 								{
									"destination" : [ "obj-18", 3 ],
									"source" : [ "obj-19", 5 ]
								}

							}
, 							{
								"patchline" : 								{
									"destination" : [ "obj-18", 2 ],
									"source" : [ "obj-19", 4 ]
								}

							}
, 							{
								"patchline" : 								{
									"destination" : [ "obj-18", 1 ],
									"source" : [ "obj-19", 3 ]
								}

							}
, 							{
								"patchline" : 								{
									"destination" : [ "obj-18", 0 ],
									"source" : [ "obj-19", 2 ]
								}

							}
, 							{
								"patchline" : 								{
									"destination" : [ "obj-205", 0 ],
									"midpoints" : [ 643.299999999999955, 549.0, 540.0, 549.0, 540.0, 549.0, 189.249999970197678, 549.0, 189.249999970197678, 1110.0, 189.5, 1110.0 ],
									"source" : [ "obj-19", 0 ]
								}

							}
, 							{
								"patchline" : 								{
									"destination" : [ "obj-215", 5 ],
									"midpoints" : [ 649.424999999999955, 559.0, 367.5, 559.0 ],
									"source" : [ "obj-19", 1 ]
								}

							}
, 							{
								"patchline" : 								{
									"destination" : [ "obj-19", 6 ],
									"source" : [ "obj-20", 8 ]
								}

							}
, 							{
								"patchline" : 								{
									"destination" : [ "obj-19", 5 ],
									"source" : [ "obj-20", 7 ]
								}

							}
, 							{
								"patchline" : 								{
									"destination" : [ "obj-19", 4 ],
									"source" : [ "obj-20", 6 ]
								}

							}
, 							{
								"patchline" : 								{
									"destination" : [ "obj-19", 3 ],
									"source" : [ "obj-20", 5 ]
								}

							}
, 							{
								"patchline" : 								{
									"destination" : [ "obj-19", 2 ],
									"source" : [ "obj-20", 4 ]
								}

							}
, 							{
								"patchline" : 								{
									"destination" : [ "obj-19", 1 ],
									"source" : [ "obj-20", 3 ]
								}

							}
, 							{
								"patchline" : 								{
									"destination" : [ "obj-19", 0 ],
									"source" : [ "obj-20", 2 ]
								}

							}
, 							{
								"patchline" : 								{
									"destination" : [ "obj-205", 0 ],
									"midpoints" : [ 643.299999999999955, 501.0, 540.0, 501.0, 540.0, 501.0, 189.0, 501.0, 189.0, 1110.0, 189.5, 1110.0 ],
									"source" : [ "obj-20", 0 ]
								}

							}
, 							{
								"patchline" : 								{
									"destination" : [ "obj-215", 4 ],
									"midpoints" : [ 649.424999999999955, 508.0, 352.300000000000011, 508.0 ],
									"source" : [ "obj-20", 1 ]
								}

							}
, 							{
								"patchline" : 								{
									"destination" : [ "obj-205", 0 ],
									"midpoints" : [ 643.299999999999955, 1029.0, 188.916666597127914, 1029.0, 188.916666597127914, 1103.0, 189.5, 1103.0 ],
									"source" : [ "obj-21", 0 ]
								}

							}
, 							{
								"patchline" : 								{
									"destination" : [ "obj-215", 15 ],
									"midpoints" : [ 649.424999999999955, 1041.0, 519.5, 1041.0 ],
									"source" : [ "obj-21", 1 ]
								}

							}
, 							{
								"patchline" : 								{
									"destination" : [ "obj-216", 0 ],
									"source" : [ "obj-215", 0 ]
								}

							}
, 							{
								"patchline" : 								{
									"destination" : [ "obj-133", 1 ],
									"source" : [ "obj-22", 0 ]
								}

							}
, 							{
								"patchline" : 								{
									"destination" : [ "obj-205", 0 ],
									"midpoints" : [ 643.299999999999955, 981.0, 540.0, 981.0, 540.0, 981.0, 189.499999940395355, 981.0, 189.499999940395355, 1110.0, 189.5, 1110.0 ],
									"source" : [ "obj-23", 0 ]
								}

							}
, 							{
								"patchline" : 								{
									"destination" : [ "obj-21", 6 ],
									"source" : [ "obj-23", 8 ]
								}

							}
, 							{
								"patchline" : 								{
									"destination" : [ "obj-21", 5 ],
									"source" : [ "obj-23", 7 ]
								}

							}
, 							{
								"patchline" : 								{
									"destination" : [ "obj-21", 4 ],
									"source" : [ "obj-23", 6 ]
								}

							}
, 							{
								"patchline" : 								{
									"destination" : [ "obj-21", 3 ],
									"source" : [ "obj-23", 5 ]
								}

							}
, 							{
								"patchline" : 								{
									"destination" : [ "obj-21", 2 ],
									"source" : [ "obj-23", 4 ]
								}

							}
, 							{
								"patchline" : 								{
									"destination" : [ "obj-21", 1 ],
									"source" : [ "obj-23", 3 ]
								}

							}
, 							{
								"patchline" : 								{
									"destination" : [ "obj-21", 0 ],
									"source" : [ "obj-23", 2 ]
								}

							}
, 							{
								"patchline" : 								{
									"destination" : [ "obj-215", 14 ],
									"midpoints" : [ 649.424999999999955, 990.0, 504.300000000000011, 990.0 ],
									"source" : [ "obj-23", 1 ]
								}

							}
, 							{
								"patchline" : 								{
									"destination" : [ "obj-205", 0 ],
									"midpoints" : [ 643.299999999999955, 933.0, 540.0, 933.0, 540.0, 933.0, 189.499999940395355, 933.0, 189.499999940395355, 1110.0, 189.5, 1110.0 ],
									"source" : [ "obj-24", 0 ]
								}

							}
, 							{
								"patchline" : 								{
									"destination" : [ "obj-215", 13 ],
									"midpoints" : [ 649.424999999999955, 942.0, 489.100000000000023, 942.0 ],
									"source" : [ "obj-24", 1 ]
								}

							}
, 							{
								"patchline" : 								{
									"destination" : [ "obj-23", 6 ],
									"source" : [ "obj-24", 8 ]
								}

							}
, 							{
								"patchline" : 								{
									"destination" : [ "obj-23", 5 ],
									"source" : [ "obj-24", 7 ]
								}

							}
, 							{
								"patchline" : 								{
									"destination" : [ "obj-23", 4 ],
									"source" : [ "obj-24", 6 ]
								}

							}
, 							{
								"patchline" : 								{
									"destination" : [ "obj-23", 3 ],
									"source" : [ "obj-24", 5 ]
								}

							}
, 							{
								"patchline" : 								{
									"destination" : [ "obj-23", 2 ],
									"source" : [ "obj-24", 4 ]
								}

							}
, 							{
								"patchline" : 								{
									"destination" : [ "obj-23", 1 ],
									"source" : [ "obj-24", 3 ]
								}

							}
, 							{
								"patchline" : 								{
									"destination" : [ "obj-23", 0 ],
									"source" : [ "obj-24", 2 ]
								}

							}
, 							{
								"patchline" : 								{
									"destination" : [ "obj-205", 0 ],
									"midpoints" : [ 643.299999999999955, 885.0, 540.0, 885.0, 540.0, 885.0, 189.916666597127914, 885.0, 189.916666597127914, 1110.0, 189.5, 1110.0 ],
									"source" : [ "obj-25", 0 ]
								}

							}
, 							{
								"patchline" : 								{
									"destination" : [ "obj-215", 12 ],
									"midpoints" : [ 649.424999999999955, 894.0, 473.899999999999977, 894.0 ],
									"source" : [ "obj-25", 1 ]
								}

							}
, 							{
								"patchline" : 								{
									"destination" : [ "obj-24", 6 ],
									"source" : [ "obj-25", 8 ]
								}

							}
, 							{
								"patchline" : 								{
									"destination" : [ "obj-24", 5 ],
									"source" : [ "obj-25", 7 ]
								}

							}
, 							{
								"patchline" : 								{
									"destination" : [ "obj-24", 4 ],
									"source" : [ "obj-25", 6 ]
								}

							}
, 							{
								"patchline" : 								{
									"destination" : [ "obj-24", 3 ],
									"source" : [ "obj-25", 5 ]
								}

							}
, 							{
								"patchline" : 								{
									"destination" : [ "obj-24", 2 ],
									"source" : [ "obj-25", 4 ]
								}

							}
, 							{
								"patchline" : 								{
									"destination" : [ "obj-24", 1 ],
									"source" : [ "obj-25", 3 ]
								}

							}
, 							{
								"patchline" : 								{
									"destination" : [ "obj-24", 0 ],
									"source" : [ "obj-25", 2 ]
								}

							}
, 							{
								"patchline" : 								{
									"destination" : [ "obj-14", 0 ],
									"midpoints" : [ 925.5, 201.0, 209.5, 201.0 ],
									"source" : [ "obj-26", 0 ]
								}

							}
, 							{
								"patchline" : 								{
									"destination" : [ "obj-205", 0 ],
									"midpoints" : [ 643.299999999999955, 837.0, 540.0, 837.0, 540.0, 837.0, 189.916666597127914, 837.0, 189.916666597127914, 1110.0, 189.5, 1110.0 ],
									"source" : [ "obj-27", 0 ]
								}

							}
, 							{
								"patchline" : 								{
									"destination" : [ "obj-215", 11 ],
									"midpoints" : [ 649.424999999999955, 844.0, 458.699999999999989, 844.0 ],
									"source" : [ "obj-27", 1 ]
								}

							}
, 							{
								"patchline" : 								{
									"destination" : [ "obj-25", 6 ],
									"source" : [ "obj-27", 8 ]
								}

							}
, 							{
								"patchline" : 								{
									"destination" : [ "obj-25", 5 ],
									"source" : [ "obj-27", 7 ]
								}

							}
, 							{
								"patchline" : 								{
									"destination" : [ "obj-25", 4 ],
									"source" : [ "obj-27", 6 ]
								}

							}
, 							{
								"patchline" : 								{
									"destination" : [ "obj-25", 3 ],
									"source" : [ "obj-27", 5 ]
								}

							}
, 							{
								"patchline" : 								{
									"destination" : [ "obj-25", 2 ],
									"source" : [ "obj-27", 4 ]
								}

							}
, 							{
								"patchline" : 								{
									"destination" : [ "obj-25", 1 ],
									"source" : [ "obj-27", 3 ]
								}

							}
, 							{
								"patchline" : 								{
									"destination" : [ "obj-25", 0 ],
									"source" : [ "obj-27", 2 ]
								}

							}
, 							{
								"patchline" : 								{
									"destination" : [ "obj-205", 0 ],
									"midpoints" : [ 643.299999999999955, 789.0, 540.0, 789.0, 540.0, 789.0, 189.499999940395355, 789.0, 189.499999940395355, 1110.0, 189.5, 1110.0 ],
									"source" : [ "obj-28", 0 ]
								}

							}
, 							{
								"patchline" : 								{
									"destination" : [ "obj-215", 10 ],
									"midpoints" : [ 649.424999999999955, 797.0, 443.5, 797.0 ],
									"source" : [ "obj-28", 1 ]
								}

							}
, 							{
								"patchline" : 								{
									"destination" : [ "obj-27", 6 ],
									"source" : [ "obj-28", 8 ]
								}

							}
, 							{
								"patchline" : 								{
									"destination" : [ "obj-27", 5 ],
									"source" : [ "obj-28", 7 ]
								}

							}
, 							{
								"patchline" : 								{
									"destination" : [ "obj-27", 4 ],
									"source" : [ "obj-28", 6 ]
								}

							}
, 							{
								"patchline" : 								{
									"destination" : [ "obj-27", 3 ],
									"source" : [ "obj-28", 5 ]
								}

							}
, 							{
								"patchline" : 								{
									"destination" : [ "obj-27", 2 ],
									"source" : [ "obj-28", 4 ]
								}

							}
, 							{
								"patchline" : 								{
									"destination" : [ "obj-27", 1 ],
									"source" : [ "obj-28", 3 ]
								}

							}
, 							{
								"patchline" : 								{
									"destination" : [ "obj-27", 0 ],
									"source" : [ "obj-28", 2 ]
								}

							}
, 							{
								"patchline" : 								{
									"destination" : [ "obj-26", 1 ],
									"source" : [ "obj-3", 0 ]
								}

							}
, 							{
								"patchline" : 								{
									"destination" : [ "obj-205", 0 ],
									"midpoints" : [ 643.299999999999955, 741.0, 540.0, 741.0, 540.0, 741.0, 189.499999940395355, 741.0, 189.499999940395355, 1110.0, 189.5, 1110.0 ],
									"source" : [ "obj-31", 0 ]
								}

							}
, 							{
								"patchline" : 								{
									"destination" : [ "obj-215", 9 ],
									"midpoints" : [ 649.424999999999955, 752.0, 428.300000000000011, 752.0 ],
									"source" : [ "obj-31", 1 ]
								}

							}
, 							{
								"patchline" : 								{
									"destination" : [ "obj-28", 6 ],
									"source" : [ "obj-31", 8 ]
								}

							}
, 							{
								"patchline" : 								{
									"destination" : [ "obj-28", 5 ],
									"source" : [ "obj-31", 7 ]
								}

							}
, 							{
								"patchline" : 								{
									"destination" : [ "obj-28", 4 ],
									"source" : [ "obj-31", 6 ]
								}

							}
, 							{
								"patchline" : 								{
									"destination" : [ "obj-28", 3 ],
									"source" : [ "obj-31", 5 ]
								}

							}
, 							{
								"patchline" : 								{
									"destination" : [ "obj-28", 2 ],
									"source" : [ "obj-31", 4 ]
								}

							}
, 							{
								"patchline" : 								{
									"destination" : [ "obj-28", 1 ],
									"source" : [ "obj-31", 3 ]
								}

							}
, 							{
								"patchline" : 								{
									"destination" : [ "obj-28", 0 ],
									"source" : [ "obj-31", 2 ]
								}

							}
, 							{
								"patchline" : 								{
									"destination" : [ "obj-133", 0 ],
									"source" : [ "obj-33", 0 ]
								}

							}
, 							{
								"patchline" : 								{
									"destination" : [ "obj-26", 0 ],
									"source" : [ "obj-34", 0 ]
								}

							}
, 							{
								"patchline" : 								{
									"destination" : [ "obj-78", 0 ],
									"midpoints" : [ 359.5, 261.0, 643.299999999999955, 261.0 ],
									"source" : [ "obj-35", 0 ]
								}

							}
, 							{
								"patchline" : 								{
									"destination" : [ "obj-205", 0 ],
									"midpoints" : [ 643.299999999999955, 693.0, 540.0, 693.0, 540.0, 693.0, 189.249999970197678, 693.0, 189.249999970197678, 1110.0, 189.5, 1110.0 ],
									"source" : [ "obj-36", 0 ]
								}

							}
, 							{
								"patchline" : 								{
									"destination" : [ "obj-215", 8 ],
									"midpoints" : [ 649.424999999999955, 701.0, 413.100000000000023, 701.0 ],
									"source" : [ "obj-36", 1 ]
								}

							}
, 							{
								"patchline" : 								{
									"destination" : [ "obj-31", 6 ],
									"source" : [ "obj-36", 8 ]
								}

							}
, 							{
								"patchline" : 								{
									"destination" : [ "obj-31", 5 ],
									"source" : [ "obj-36", 7 ]
								}

							}
, 							{
								"patchline" : 								{
									"destination" : [ "obj-31", 4 ],
									"source" : [ "obj-36", 6 ]
								}

							}
, 							{
								"patchline" : 								{
									"destination" : [ "obj-31", 3 ],
									"source" : [ "obj-36", 5 ]
								}

							}
, 							{
								"patchline" : 								{
									"destination" : [ "obj-31", 2 ],
									"source" : [ "obj-36", 4 ]
								}

							}
, 							{
								"patchline" : 								{
									"destination" : [ "obj-31", 1 ],
									"source" : [ "obj-36", 3 ]
								}

							}
, 							{
								"patchline" : 								{
									"destination" : [ "obj-31", 0 ],
									"source" : [ "obj-36", 2 ]
								}

							}
, 							{
								"patchline" : 								{
									"destination" : [ "obj-11", 0 ],
									"source" : [ "obj-37", 0 ]
								}

							}
, 							{
								"patchline" : 								{
									"destination" : [ "obj-33", 0 ],
									"source" : [ "obj-4", 0 ]
								}

							}
, 							{
								"patchline" : 								{
									"destination" : [ "obj-45", 0 ],
									"source" : [ "obj-44", 0 ]
								}

							}
, 							{
								"patchline" : 								{
									"destination" : [ "obj-6", 0 ],
									"source" : [ "obj-5", 0 ]
								}

							}
, 							{
								"patchline" : 								{
									"destination" : [ "obj-22", 0 ],
									"midpoints" : [ 835.5, 120.0, 242.5, 120.0 ],
									"order" : 1,
									"source" : [ "obj-54", 0 ]
								}

							}
, 							{
								"patchline" : 								{
									"destination" : [ "obj-78", 5 ],
									"midpoints" : [ 835.5, 120.0, 684.133333333333326, 120.0 ],
									"order" : 0,
									"source" : [ "obj-54", 0 ]
								}

							}
, 							{
								"patchline" : 								{
									"destination" : [ "obj-78", 1 ],
									"midpoints" : [ 336.5, 170.0, 651.466666666666583, 170.0 ],
									"source" : [ "obj-6", 0 ]
								}

							}
, 							{
								"patchline" : 								{
									"destination" : [ "obj-70", 0 ],
									"source" : [ "obj-7", 0 ]
								}

							}
, 							{
								"patchline" : 								{
									"destination" : [ "obj-78", 2 ],
									"midpoints" : [ 425.5, 152.0, 659.633333333333326, 152.0 ],
									"source" : [ "obj-70", 0 ]
								}

							}
, 							{
								"patchline" : 								{
									"destination" : [ "obj-13", 6 ],
									"source" : [ "obj-78", 8 ]
								}

							}
, 							{
								"patchline" : 								{
									"destination" : [ "obj-13", 5 ],
									"source" : [ "obj-78", 7 ]
								}

							}
, 							{
								"patchline" : 								{
									"destination" : [ "obj-13", 4 ],
									"source" : [ "obj-78", 6 ]
								}

							}
, 							{
								"patchline" : 								{
									"destination" : [ "obj-13", 3 ],
									"source" : [ "obj-78", 5 ]
								}

							}
, 							{
								"patchline" : 								{
									"destination" : [ "obj-13", 2 ],
									"source" : [ "obj-78", 4 ]
								}

							}
, 							{
								"patchline" : 								{
									"destination" : [ "obj-13", 1 ],
									"source" : [ "obj-78", 3 ]
								}

							}
, 							{
								"patchline" : 								{
									"destination" : [ "obj-13", 0 ],
									"source" : [ "obj-78", 2 ]
								}

							}
, 							{
								"patchline" : 								{
									"destination" : [ "obj-205", 0 ],
									"midpoints" : [ 643.299999999999955, 309.0, 540.0, 309.0, 540.0, 309.0, 189.0, 309.0, 189.0, 1104.0, 189.5, 1104.0 ],
									"order" : 0,
									"source" : [ "obj-78", 0 ]
								}

							}
, 							{
								"patchline" : 								{
									"destination" : [ "obj-215", 0 ],
									"midpoints" : [ 649.424999999999955, 317.0, 291.5, 317.0 ],
									"source" : [ "obj-78", 1 ]
								}

							}
, 							{
								"patchline" : 								{
									"destination" : [ "obj-44", 0 ],
									"midpoints" : [ 643.299999999999955, 309.0, 69.5, 309.0 ],
									"order" : 1,
									"source" : [ "obj-78", 0 ]
								}

							}
, 							{
								"patchline" : 								{
									"destination" : [ "obj-78", 6 ],
									"midpoints" : [ 1053.5, 217.0, 692.299999999999955, 217.0 ],
									"source" : [ "obj-9", 0 ]
								}

							}
 ],
						"bgcolor" : [ 0.776470588235294, 0.776470588235294, 0.776470588235294, 1.0 ],
						"editing_bgcolor" : [ 0.776470588235294, 0.776470588235294, 0.776470588235294, 1.0 ]
					}
,
					"patching_rect" : [ 623.0, 540.0, 465.0, 20.0 ],
					"saved_object_attributes" : 					{
						"description" : "",
						"digest" : "",
						"editing_bgcolor" : [ 0.776470588235294, 0.776470588235294, 0.776470588235294, 1.0 ],
						"globalpatchername" : "",
						"locked_bgcolor" : [ 0.776470588235294, 0.776470588235294, 0.776470588235294, 1.0 ],
						"tags" : ""
					}
,
					"text" : "patcher Phase Sequencer"
				}

			}
, 			{
				"box" : 				{
					"id" : "obj-120",
					"maxclass" : "newobj",
					"numinlets" : 2,
					"numoutlets" : 9,
					"outlettype" : [ "int", "int", "float", "float", "float", "", "int", "float", "" ],
					"patching_rect" : [ 28.0, 384.347450613975525, 175.0, 20.0 ],
					"text" : "transport"
				}

			}
, 			{
				"box" : 				{
					"id" : "obj-77",
					"maxclass" : "ezdac~",
					"numinlets" : 2,
					"numoutlets" : 0,
					"patching_rect" : [ 27.5, 208.0, 45.0, 45.0 ]
				}

			}
, 			{
				"box" : 				{
					"color" : [ 1.0, 0.34902, 0.372549, 1.0 ],
					"id" : "obj-318",
					"maxclass" : "newobj",
					"numinlets" : 1,
					"numoutlets" : 0,
					"patching_rect" : [ 145.0, 517.347450613975525, 47.0, 20.0 ],
					"saved_attribute_attributes" : 					{
						"color" : 						{
							"expression" : "themecolor.live_record"
						}

					}
,
					"saved_newobj_attribute_attributes" : 					{
						"color" : 						{
							"expression" : "themecolor.live_record"
						}

					}
,
					"text" : "s Tbang"
				}

			}
, 			{
				"box" : 				{
					"id" : "obj-313",
					"maxclass" : "live.dial",
					"numinlets" : 1,
					"numoutlets" : 2,
					"outlettype" : [ "", "float" ],
					"parameter_enable" : 1,
					"patching_rect" : [ 1301.0, 321.347450613975525, 41.0, 48.0 ],
					"presentation" : 1,
					"presentation_rect" : [ 223.72506046295166, 103.02163862316894, 41.0, 48.0 ],
					"saved_attribute_attributes" : 					{
						"valueof" : 						{
							"parameter_initial" : [ 4 ],
							"parameter_initial_enable" : 1,
							"parameter_longname" : "Loops",
							"parameter_mmax" : 7.0,
							"parameter_mmin" : 3.0,
							"parameter_modmode" : 4,
							"parameter_shortname" : "Loops",
							"parameter_type" : 1,
							"parameter_unitstyle" : 0
						}

					}
,
					"varname" : "live.dial[3]"
				}

			}
, 			{
				"box" : 				{
					"id" : "obj-214",
					"maxclass" : "multislider",
					"numinlets" : 1,
					"numoutlets" : 2,
					"outlettype" : [ "", "" ],
					"parameter_enable" : 0,
					"patching_rect" : [ 1068.5, 655.0, 140.0, 127.0 ],
					"presentation" : 1,
					"presentation_rect" : [ 269.480516910552979, 2.688311100006104, 170.0, 163.0 ],
					"setminmax" : [ -0.009999999776483, 1.009999990463257 ],
					"size" : 16,
					"style" : "velvet",
					"varname" : "multislider"
				}

			}
, 			{
				"box" : 				{
					"id" : "obj-5",
					"maxclass" : "live.comment",
					"numinlets" : 1,
					"numoutlets" : 0,
					"patching_rect" : [ 42.0, 136.0, 59.0, 18.0 ],
					"text" : "MIDI to Live",
					"textjustification" : 0
				}

			}
, 			{
				"box" : 				{
					"id" : "obj-4",
					"maxclass" : "live.comment",
					"numinlets" : 1,
					"numoutlets" : 0,
					"patching_rect" : [ 33.0, 16.0, 70.0, 18.0 ],
					"text" : "MIDI from Live",
					"textjustification" : 0
				}

			}
, 			{
				"box" : 				{
					"id" : "obj-3",
					"maxclass" : "live.comment",
					"numinlets" : 1,
					"numoutlets" : 0,
					"patching_rect" : [ 63.0, 75.0, 122.0, 18.0 ],
					"text" : "Build your MIDI effect here",
					"textjustification" : 0
				}

			}
, 			{
				"box" : 				{
					"fontname" : "Ableton Sans Medium Regular",
					"fontsize" : 11.0,
					"hidden" : 1,
					"id" : "obj-9",
					"maxclass" : "comment",
					"numinlets" : 1,
					"numoutlets" : 0,
					"patching_rect" : [ 0.0, 170.0, 133.0, 20.0 ],
					"presentation" : 1,
					"presentation_rect" : [ 0.0, 170.0, 133.0, 20.0 ],
					"text" : "Device vertical limit"
				}

			}
, 			{
				"box" : 				{
					"fontname" : "Arial Bold",
					"fontsize" : 10.0,
					"id" : "obj-2",
					"maxclass" : "newobj",
					"numinlets" : 1,
					"numoutlets" : 0,
					"patching_rect" : [ 48.0, 114.0, 47.0, 20.0 ],
					"text" : "midiout"
				}

			}
, 			{
				"box" : 				{
					"fontname" : "Arial Bold",
					"fontsize" : 10.0,
					"id" : "obj-1",
					"maxclass" : "newobj",
					"numinlets" : 1,
					"numoutlets" : 1,
					"outlettype" : [ "int" ],
					"patching_rect" : [ 48.0, 34.0, 40.0, 20.0 ],
					"text" : "midiin"
				}

			}
 ],
		"lines" : [ 			{
				"patchline" : 				{
					"destination" : [ "obj-2", 0 ],
					"source" : [ "obj-1", 0 ]
				}

			}
, 			{
				"patchline" : 				{
					"destination" : [ "obj-217", 3 ],
					"source" : [ "obj-10", 0 ]
				}

			}
, 			{
				"patchline" : 				{
					"destination" : [ "obj-169", 0 ],
					"source" : [ "obj-105", 0 ]
				}

			}
, 			{
				"patchline" : 				{
					"destination" : [ "obj-36", 1 ],
					"source" : [ "obj-106", 0 ]
				}

			}
, 			{
				"patchline" : 				{
					"destination" : [ "obj-12", 0 ],
					"source" : [ "obj-11", 0 ]
				}

			}
, 			{
				"patchline" : 				{
					"destination" : [ "obj-26", 0 ],
					"midpoints" : [ 434.5, 700.5, 567.813557624816895, 700.5, 567.813557624816895, 309.5, 632.5, 309.5 ],
					"source" : [ "obj-110", 0 ]
				}

			}
, 			{
				"patchline" : 				{
					"destination" : [ "obj-110", 0 ],
					"source" : [ "obj-115", 0 ]
				}

			}
, 			{
				"patchline" : 				{
					"destination" : [ "obj-16", 0 ],
					"order" : 1,
					"source" : [ "obj-116", 0 ]
				}

			}
, 			{
				"patchline" : 				{
					"destination" : [ "obj-44", 1 ],
					"midpoints" : [ 357.5, 389.296296417713165, 525.0, 389.296296417713165 ],
					"order" : 0,
					"source" : [ "obj-116", 0 ]
				}

			}
, 			{
				"patchline" : 				{
					"destination" : [ "obj-15", 0 ],
					"order" : 1,
					"source" : [ "obj-117", 0 ]
				}

			}
, 			{
				"patchline" : 				{
					"destination" : [ "obj-41", 1 ],
					"midpoints" : [ 306.388890564441681, 396.703703582286835, 465.5, 396.703703582286835 ],
					"order" : 0,
					"source" : [ "obj-117", 0 ]
				}

			}
, 			{
				"patchline" : 				{
					"destination" : [ "obj-120", 0 ],
					"midpoints" : [ 37.5, 370.347450613975525, 37.5, 370.347450613975525 ],
					"source" : [ "obj-12", 0 ]
				}

			}
, 			{
				"patchline" : 				{
					"destination" : [ "obj-118", 0 ],
					"midpoints" : [ 115.5, 420.347450613975525, 73.5, 420.347450613975525 ],
					"source" : [ "obj-120", 4 ]
				}

			}
, 			{
				"patchline" : 				{
					"destination" : [ "obj-119", 0 ],
					"midpoints" : [ 135.0, 447.347450613975525, 109.5, 447.347450613975525 ],
					"source" : [ "obj-120", 5 ]
				}

			}
, 			{
				"patchline" : 				{
					"destination" : [ "obj-121", 0 ],
					"midpoints" : [ 154.5, 420.347450613975525, 141.0, 420.347450613975525, 141.0, 457.59420382976532, 93.649350643157959, 457.59420382976532, 93.649350643157959, 483.347450613975525, 94.5, 483.347450613975525 ],
					"order" : 1,
					"source" : [ "obj-120", 6 ]
				}

			}
, 			{
				"patchline" : 				{
					"destination" : [ "obj-122", 0 ],
					"source" : [ "obj-120", 0 ]
				}

			}
, 			{
				"patchline" : 				{
					"destination" : [ "obj-123", 0 ],
					"midpoints" : [ 57.0, 431.038960933685303, 51.5, 431.038960933685303 ],
					"source" : [ "obj-120", 1 ]
				}

			}
, 			{
				"patchline" : 				{
					"destination" : [ "obj-18", 1 ],
					"midpoints" : [ 174.0, 420.347450613975525, 189.0, 420.347450613975525, 189.0, 456.347450613975525, 169.5, 456.347450613975525 ],
					"source" : [ "obj-120", 7 ]
				}

			}
, 			{
				"patchline" : 				{
					"destination" : [ "obj-19", 0 ],
					"midpoints" : [ 154.5, 415.347450613975525, 154.5, 415.347450613975525 ],
					"order" : 0,
					"source" : [ "obj-120", 6 ]
				}

			}
, 			{
				"patchline" : 				{
					"color" : [ 1.0, 0.337254901960784, 0.619607843137255, 1.0 ],
					"destination" : [ "obj-126", 0 ],
					"source" : [ "obj-125", 0 ]
				}

			}
, 			{
				"patchline" : 				{
					"color" : [ 1.0, 0.337254901960784, 0.619607843137255, 1.0 ],
					"destination" : [ "obj-10", 0 ],
					"midpoints" : [ 1018.833333333333371, 296.0, 855.5, 296.0 ],
					"source" : [ "obj-126", 5 ]
				}

			}
, 			{
				"patchline" : 				{
					"color" : [ 1.0, 0.337254901960784, 0.619607843137255, 1.0 ],
					"destination" : [ "obj-21", 0 ],
					"midpoints" : [ 983.5, 296.330508232116699, 740.5, 296.330508232116699 ],
					"order" : 0,
					"source" : [ "obj-126", 3 ]
				}

			}
, 			{
				"patchline" : 				{
					"color" : [ 1.0, 0.337254901960784, 0.619607843137255, 1.0 ],
					"destination" : [ "obj-217", 4 ],
					"order" : 1,
					"source" : [ "obj-126", 0 ]
				}

			}
, 			{
				"patchline" : 				{
					"color" : [ 1.0, 0.337254901960784, 0.619607843137255, 1.0 ],
					"destination" : [ "obj-219", 0 ],
					"midpoints" : [ 983.5, 296.0, 685.5, 296.0 ],
					"order" : 1,
					"source" : [ "obj-126", 3 ]
				}

			}
, 			{
				"patchline" : 				{
					"color" : [ 1.0, 0.337254901960784, 0.619607843137255, 1.0 ],
					"destination" : [ "obj-26", 0 ],
					"midpoints" : [ 965.833333333333371, 296.0, 632.5, 296.0 ],
					"source" : [ "obj-126", 2 ]
				}

			}
, 			{
				"patchline" : 				{
					"color" : [ 1.0, 0.337254901960784, 0.619607843137255, 1.0 ],
					"destination" : [ "obj-313", 0 ],
					"midpoints" : [ 1001.166666666666629, 296.649350643157959, 1310.5, 296.649350643157959 ],
					"source" : [ "obj-126", 4 ]
				}

			}
, 			{
				"patchline" : 				{
					"color" : [ 1.0, 0.337254901960784, 0.619607843137255, 1.0 ],
					"destination" : [ "obj-35", 0 ],
					"midpoints" : [ 930.5, 296.0, 1168.5, 296.0 ],
					"order" : 0,
					"source" : [ "obj-126", 0 ]
				}

			}
, 			{
				"patchline" : 				{
					"color" : [ 1.0, 0.337254901960784, 0.619607843137255, 1.0 ],
					"destination" : [ "obj-38", 0 ],
					"midpoints" : [ 1036.5, 296.652541160583496, 554.813557624816895, 296.652541160583496, 554.813557624816895, 496.5, 331.5, 496.5 ],
					"source" : [ "obj-126", 6 ]
				}

			}
, 			{
				"patchline" : 				{
					"color" : [ 1.0, 0.337254901960784, 0.619607843137255, 1.0 ],
					"destination" : [ "obj-69", 0 ],
					"midpoints" : [ 948.166666666666629, 295.952879548072815, 798.5, 295.952879548072815 ],
					"source" : [ "obj-126", 1 ]
				}

			}
, 			{
				"patchline" : 				{
					"color" : [ 1.0, 0.337254901960784, 0.619607843137255, 1.0 ],
					"destination" : [ "obj-70", 1 ],
					"midpoints" : [ 930.5, 297.0, 555.0, 297.0, 555.0, 170.0, 530.5, 170.0 ],
					"order" : 2,
					"source" : [ "obj-126", 0 ]
				}

			}
, 			{
				"patchline" : 				{
					"destination" : [ "obj-217", 1 ],
					"midpoints" : [ 735.483051776885986, 487.737288236618042, 706.833333333333371, 487.737288236618042 ],
					"source" : [ "obj-128", 1 ]
				}

			}
, 			{
				"patchline" : 				{
					"color" : [ 1.0, 0.337254901960784, 0.619607843137255, 1.0 ],
					"destination" : [ "obj-217", 4 ],
					"midpoints" : [ 715.5, 505.737288236618042, 929.833333333333258, 505.737288236618042 ],
					"source" : [ "obj-128", 0 ]
				}

			}
, 			{
				"patchline" : 				{
					"destination" : [ "obj-318", 0 ],
					"source" : [ "obj-13", 0 ]
				}

			}
, 			{
				"patchline" : 				{
					"destination" : [ "obj-11", 0 ],
					"source" : [ "obj-14", 0 ]
				}

			}
, 			{
				"patchline" : 				{
					"destination" : [ "obj-25", 0 ],
					"source" : [ "obj-15", 0 ]
				}

			}
, 			{
				"patchline" : 				{
					"destination" : [ "obj-25", 1 ],
					"source" : [ "obj-16", 1 ]
				}

			}
, 			{
				"patchline" : 				{
					"destination" : [ "obj-13", 0 ],
					"midpoints" : [ 154.5, 482.347450613975525, 154.5, 482.347450613975525 ],
					"source" : [ "obj-18", 0 ]
				}

			}
, 			{
				"patchline" : 				{
					"destination" : [ "obj-18", 0 ],
					"source" : [ "obj-19", 0 ]
				}

			}
, 			{
				"patchline" : 				{
					"destination" : [ "obj-27", 0 ],
					"source" : [ "obj-21", 0 ]
				}

			}
, 			{
				"patchline" : 				{
					"destination" : [ "obj-214", 0 ],
					"midpoints" : [ 1078.5, 597.152549386024475, 1078.0, 597.152549386024475 ],
					"source" : [ "obj-217", 2 ]
				}

			}
, 			{
				"patchline" : 				{
					"destination" : [ "obj-70", 0 ],
					"midpoints" : [ 855.5, 614.0, 598.0, 614.0, 598.0, 147.0, 276.5, 147.0 ],
					"source" : [ "obj-217", 1 ]
				}

			}
, 			{
				"patchline" : 				{
					"destination" : [ "obj-95", 0 ],
					"midpoints" : [ 632.5, 587.644506216049194, 1294.5, 587.644506216049194 ],
					"source" : [ "obj-217", 0 ]
				}

			}
, 			{
				"patchline" : 				{
					"destination" : [ "obj-24", 0 ],
					"midpoints" : [ 685.5, 396.5, 715.5, 396.5 ],
					"source" : [ "obj-219", 0 ]
				}

			}
, 			{
				"patchline" : 				{
					"destination" : [ "obj-26", 0 ],
					"midpoints" : [ 479.5, 649.0, 568.0, 649.0, 568.0, 539.0, 568.0, 539.0, 568.0, 308.0, 632.5, 308.0 ],
					"source" : [ "obj-22", 0 ]
				}

			}
, 			{
				"patchline" : 				{
					"destination" : [ "obj-115", 0 ],
					"order" : 1,
					"source" : [ "obj-23", 0 ]
				}

			}
, 			{
				"patchline" : 				{
					"destination" : [ "obj-22", 0 ],
					"midpoints" : [ 434.5, 587.0, 479.5, 587.0 ],
					"order" : 0,
					"source" : [ "obj-23", 0 ]
				}

			}
, 			{
				"patchline" : 				{
					"destination" : [ "obj-128", 0 ],
					"source" : [ "obj-24", 0 ]
				}

			}
, 			{
				"patchline" : 				{
					"destination" : [ "obj-36", 0 ],
					"source" : [ "obj-25", 0 ]
				}

			}
, 			{
				"patchline" : 				{
					"destination" : [ "obj-217", 0 ],
					"source" : [ "obj-26", 0 ]
				}

			}
, 			{
				"patchline" : 				{
					"destination" : [ "obj-24", 1 ],
					"midpoints" : [ 751.0, 411.5, 726.0, 411.5 ],
					"source" : [ "obj-27", 1 ]
				}

			}
, 			{
				"patchline" : 				{
					"destination" : [ "obj-24", 0 ],
					"midpoints" : [ 740.5, 403.279661178588867, 715.5, 403.279661178588867 ],
					"source" : [ "obj-27", 0 ]
				}

			}
, 			{
				"patchline" : 				{
					"destination" : [ "obj-125", 0 ],
					"source" : [ "obj-28", 0 ]
				}

			}
, 			{
				"patchline" : 				{
					"destination" : [ "obj-21", 0 ],
					"midpoints" : [ 1146.536999762058258, 429.666667699813843, 1093.833334565162659, 429.666667699813843, 1093.833334565162659, 282.666665554046631, 740.5, 282.666665554046631 ],
					"order" : 0,
					"source" : [ "obj-31", 0 ]
				}

			}
, 			{
				"patchline" : 				{
					"destination" : [ "obj-219", 0 ],
					"midpoints" : [ 1146.536999762058258, 429.666667699813843, 1093.833334565162659, 429.666667699813843, 1093.833334565162659, 282.666665554046631, 685.5, 282.666665554046631 ],
					"order" : 1,
					"source" : [ "obj-31", 0 ]
				}

			}
, 			{
				"patchline" : 				{
					"destination" : [ "obj-94", 1 ],
					"source" : [ "obj-313", 0 ]
				}

			}
, 			{
				"patchline" : 				{
					"destination" : [ "obj-125", 0 ],
					"midpoints" : [ 837.5, 187.0, 930.5, 187.0 ],
					"source" : [ "obj-33", 0 ]
				}

			}
, 			{
				"patchline" : 				{
					"destination" : [ "obj-217", 6 ],
					"midpoints" : [ 1168.5, 508.0, 1078.5, 508.0 ],
					"order" : 1,
					"source" : [ "obj-35", 0 ]
				}

			}
, 			{
				"patchline" : 				{
					"destination" : [ "obj-31", 0 ],
					"midpoints" : [ 1168.5, 357.8333340883255, 1146.0, 357.8333340883255, 1146.0, 378.0, 1146.536999762058258, 378.0 ],
					"order" : 0,
					"source" : [ "obj-35", 0 ]
				}

			}
, 			{
				"patchline" : 				{
					"destination" : [ "obj-110", 1 ],
					"midpoints" : [ 306.5, 640.033915877342224, 452.5, 640.033915877342224 ],
					"source" : [ "obj-36", 0 ]
				}

			}
, 			{
				"patchline" : 				{
					"destination" : [ "obj-106", 0 ],
					"order" : 1,
					"source" : [ "obj-38", 0 ]
				}

			}
, 			{
				"patchline" : 				{
					"destination" : [ "obj-23", 0 ],
					"midpoints" : [ 331.5, 543.033915877342224, 434.5, 543.033915877342224 ],
					"order" : 0,
					"source" : [ "obj-38", 0 ]
				}

			}
, 			{
				"patchline" : 				{
					"destination" : [ "obj-217", 5 ],
					"order" : 1,
					"source" : [ "obj-43", 0 ]
				}

			}
, 			{
				"patchline" : 				{
					"destination" : [ "obj-74", 0 ],
					"midpoints" : [ 1004.166666666666629, 385.0, 1037.5, 385.0 ],
					"order" : 0,
					"source" : [ "obj-43", 0 ]
				}

			}
, 			{
				"patchline" : 				{
					"destination" : [ "obj-120", 0 ],
					"midpoints" : [ 73.5, 370.347450613975525, 37.5, 370.347450613975525 ],
					"source" : [ "obj-6", 0 ]
				}

			}
, 			{
				"patchline" : 				{
					"destination" : [ "obj-7", 1 ],
					"source" : [ "obj-60", 1 ]
				}

			}
, 			{
				"patchline" : 				{
					"destination" : [ "obj-7", 0 ],
					"source" : [ "obj-60", 0 ]
				}

			}
, 			{
				"patchline" : 				{
					"destination" : [ "obj-217", 2 ],
					"midpoints" : [ 798.5, 526.0, 781.166666666666629, 526.0 ],
					"source" : [ "obj-69", 0 ]
				}

			}
, 			{
				"patchline" : 				{
					"destination" : [ "obj-60", 0 ],
					"source" : [ "obj-70", 0 ]
				}

			}
, 			{
				"patchline" : 				{
					"destination" : [ "obj-21", 0 ],
					"midpoints" : [ 1037.5, 475.0, 1120.0, 475.0, 1120.0, 307.0, 740.5, 307.0 ],
					"order" : 0,
					"source" : [ "obj-73", 0 ]
				}

			}
, 			{
				"patchline" : 				{
					"destination" : [ "obj-219", 0 ],
					"midpoints" : [ 1037.5, 474.0, 1121.0, 474.0, 1121.0, 307.0, 685.5, 307.0 ],
					"order" : 1,
					"source" : [ "obj-73", 0 ]
				}

			}
, 			{
				"patchline" : 				{
					"destination" : [ "obj-75", 0 ],
					"source" : [ "obj-74", 0 ]
				}

			}
, 			{
				"patchline" : 				{
					"destination" : [ "obj-73", 0 ],
					"source" : [ "obj-75", 0 ]
				}

			}
, 			{
				"patchline" : 				{
					"destination" : [ "obj-105", 0 ],
					"source" : [ "obj-93", 0 ]
				}

			}
, 			{
				"patchline" : 				{
					"destination" : [ "obj-93", 0 ],
					"source" : [ "obj-94", 0 ]
				}

			}
, 			{
				"patchline" : 				{
					"destination" : [ "obj-94", 0 ],
					"source" : [ "obj-95", 0 ]
				}

			}
 ],
		"parameters" : 		{
			"obj-10" : [ "Steps", "Steps", 0 ],
			"obj-125" : [ "Reset Loop", "Reset", 0 ],
			"obj-21" : [ "Fine", "Fine", 0 ],
			"obj-219" : [ "Phase", "Phase", 0 ],
			"obj-26" : [ "Loop Length (s)", "Loop (s)", 0 ],
			"obj-313" : [ "Loops", "Loops", 0 ],
			"obj-35" : [ "Waveform", "Waveform", 0 ],
			"obj-38" : [ "Beat per Loop", "BeatsPerLoop", 0 ],
			"obj-69" : [ "Shift", "Shift", 0 ],
			"obj-70::obj-155" : [ "Octave Offset[2]", "Octave", 0 ],
			"obj-70::obj-48" : [ "PitchTonic[2]", "PitchTonic", 0 ],
			"obj-70::obj-52" : [ "PitchRand[2]", "PitchRand", 0 ],
			"obj-70::obj-55" : [ "PitchMode[2]", "PitchMode", 0 ],
			"obj-70::obj-70" : [ "PitchMap[2]", "PitchMap", 1 ],
			"parameterbanks" : 			{
				"0" : 				{
					"index" : 0,
					"name" : "",
					"parameters" : [ "-", "-", "-", "-", "-", "-", "-", "-" ]
				}

			}
,
			"parameter_overrides" : 			{
				"obj-70::obj-155" : 				{
					"parameter_longname" : "Octave Offset[2]"
				}
,
				"obj-70::obj-48" : 				{
					"parameter_longname" : "PitchTonic[2]"
				}
,
				"obj-70::obj-52" : 				{
					"parameter_longname" : "PitchRand[2]"
				}
,
				"obj-70::obj-55" : 				{
					"parameter_longname" : "PitchMode[2]"
				}

			}
,
			"inherited_shortname" : 1
		}
,
		"dependency_cache" : [ 			{
				"name" : "LengthValues.txt",
				"bootpath" : "~/OneDrive/Dokumente/Max 8/Max for Live Devices/Iinspired By Lucid Rhythms Project/data",
				"patcherrelativepath" : "../data",
				"type" : "TEXT",
				"implicit" : 1
			}
, 			{
				"name" : "NoteGenerator.maxpat",
				"bootpath" : "~/OneDrive/Dokumente/Max 8/Max for Live Devices/Iinspired By Lucid Rhythms Project/patchers",
				"patcherrelativepath" : ".",
				"type" : "JSON",
				"implicit" : 1
			}
, 			{
				"name" : "PitchModes.txt",
				"bootpath" : "~/OneDrive/Dokumente/Max 8/Max for Live Devices/Iinspired By Lucid Rhythms Project/data",
				"patcherrelativepath" : "../data",
				"type" : "TEXT",
				"implicit" : 1
			}
, 			{
				"name" : "PitchModesLengths.txt",
				"bootpath" : "~/OneDrive/Dokumente/Max 8/Max for Live Devices/Iinspired By Lucid Rhythms Project/data",
				"patcherrelativepath" : "../data",
				"type" : "TEXT",
				"implicit" : 1
			}
, 			{
				"name" : "phase_gen.maxpat",
				"bootpath" : "~/OneDrive/Dokumente/Max 8/Max for Live Devices/Iinspired By Lucid Rhythms Project/patchers",
				"patcherrelativepath" : ".",
				"type" : "JSON",
				"implicit" : 1
			}
 ],
		"autosave" : 0,
		"boxgroups" : [ 			{
				"boxes" : [ "obj-121", "obj-122", "obj-318", "obj-13", "obj-18", "obj-119", "obj-123", "obj-19", "obj-118", "obj-120", "obj-12", "obj-6", "obj-11", "obj-14", "obj-77", "obj-72" ]
			}
, 			{
				"boxes" : [ "obj-29", "obj-32", "obj-313", "obj-95", "obj-94", "obj-93", "obj-105", "obj-169" ]
			}
 ],
		"styles" : [ 			{
				"name" : "rnbodefault",
				"default" : 				{
					"accentcolor" : [ 0.343034118413925, 0.506230533123016, 0.86220508813858, 1.0 ],
					"bgcolor" : [ 0.031372549019608, 0.125490196078431, 0.211764705882353, 1.0 ],
					"bgfillcolor" : 					{
						"angle" : 270.0,
						"autogradient" : 0.0,
						"color" : [ 0.031372549019608, 0.125490196078431, 0.211764705882353, 1.0 ],
						"color1" : [ 0.031372549019608, 0.125490196078431, 0.211764705882353, 1.0 ],
						"color2" : [ 0.263682, 0.004541, 0.038797, 1.0 ],
						"proportion" : 0.39,
						"type" : "color"
					}
,
					"color" : [ 0.929412, 0.929412, 0.352941, 1.0 ],
					"elementcolor" : [ 0.357540726661682, 0.515565991401672, 0.861786782741547, 1.0 ],
					"fontname" : [ "Lato" ],
					"fontsize" : [ 12.0 ],
					"stripecolor" : [ 0.258338063955307, 0.352425158023834, 0.511919498443604, 1.0 ],
					"textcolor_inverse" : [ 0.968627, 0.968627, 0.968627, 1 ]
				}
,
				"parentstyle" : "",
				"multi" : 0
			}
, 			{
				"name" : "rnbohighcontrast",
				"default" : 				{
					"accentcolor" : [ 0.666666666666667, 0.666666666666667, 0.666666666666667, 1.0 ],
					"bgcolor" : [ 0.0, 0.0, 0.0, 1.0 ],
					"bgfillcolor" : 					{
						"angle" : 270.0,
						"autogradient" : 0.0,
						"color" : [ 0.0, 0.0, 0.0, 1.0 ],
						"color1" : [ 0.090196078431373, 0.090196078431373, 0.090196078431373, 1.0 ],
						"color2" : [ 0.156862745098039, 0.168627450980392, 0.164705882352941, 1.0 ],
						"proportion" : 0.5,
						"type" : "color"
					}
,
					"clearcolor" : [ 1.0, 1.0, 1.0, 0.0 ],
					"color" : [ 1.0, 0.874509803921569, 0.141176470588235, 1.0 ],
					"editing_bgcolor" : [ 0.258823529411765, 0.258823529411765, 0.258823529411765, 1.0 ],
					"elementcolor" : [ 0.223386004567146, 0.254748553037643, 0.998085916042328, 1.0 ],
					"fontsize" : [ 13.0 ],
					"locked_bgcolor" : [ 0.258823529411765, 0.258823529411765, 0.258823529411765, 1.0 ],
					"selectioncolor" : [ 0.301960784313725, 0.694117647058824, 0.949019607843137, 1.0 ],
					"stripecolor" : [ 0.258823529411765, 0.258823529411765, 0.258823529411765, 1.0 ],
					"textcolor" : [ 1.0, 1.0, 1.0, 1.0 ],
					"textcolor_inverse" : [ 1.0, 1.0, 1.0, 1.0 ]
				}
,
				"parentstyle" : "",
				"multi" : 0
			}
, 			{
				"name" : "rnbolight",
				"default" : 				{
					"accentcolor" : [ 0.443137254901961, 0.505882352941176, 0.556862745098039, 1.0 ],
					"bgcolor" : [ 0.796078431372549, 0.862745098039216, 0.925490196078431, 1.0 ],
					"bgfillcolor" : 					{
						"angle" : 270.0,
						"autogradient" : 0.0,
						"color" : [ 0.835294117647059, 0.901960784313726, 0.964705882352941, 1.0 ],
						"color1" : [ 0.031372549019608, 0.125490196078431, 0.211764705882353, 1.0 ],
						"color2" : [ 0.263682, 0.004541, 0.038797, 1.0 ],
						"proportion" : 0.39,
						"type" : "color"
					}
,
					"clearcolor" : [ 0.898039, 0.898039, 0.898039, 1.0 ],
					"color" : [ 0.815686274509804, 0.509803921568627, 0.262745098039216, 1.0 ],
					"editing_bgcolor" : [ 0.898039, 0.898039, 0.898039, 1.0 ],
					"elementcolor" : [ 0.337254901960784, 0.384313725490196, 0.462745098039216, 1.0 ],
					"fontname" : [ "Lato" ],
					"locked_bgcolor" : [ 0.898039, 0.898039, 0.898039, 1.0 ],
					"stripecolor" : [ 0.309803921568627, 0.698039215686274, 0.764705882352941, 1.0 ],
					"textcolor_inverse" : [ 0.0, 0.0, 0.0, 1.0 ]
				}
,
				"parentstyle" : "",
				"multi" : 0
			}
, 			{
				"name" : "rnbomonokai",
				"default" : 				{
					"accentcolor" : [ 0.501960784313725, 0.501960784313725, 0.501960784313725, 1.0 ],
					"bgcolor" : [ 0.0, 0.0, 0.0, 1.0 ],
					"bgfillcolor" : 					{
						"angle" : 270.0,
						"autogradient" : 0.0,
						"color" : [ 0.0, 0.0, 0.0, 1.0 ],
						"color1" : [ 0.031372549019608, 0.125490196078431, 0.211764705882353, 1.0 ],
						"color2" : [ 0.263682, 0.004541, 0.038797, 1.0 ],
						"proportion" : 0.39,
						"type" : "color"
					}
,
					"clearcolor" : [ 0.976470588235294, 0.96078431372549, 0.917647058823529, 1.0 ],
					"color" : [ 0.611764705882353, 0.125490196078431, 0.776470588235294, 1.0 ],
					"editing_bgcolor" : [ 0.976470588235294, 0.96078431372549, 0.917647058823529, 1.0 ],
					"elementcolor" : [ 0.749019607843137, 0.83921568627451, 1.0, 1.0 ],
					"fontname" : [ "Lato" ],
					"locked_bgcolor" : [ 0.976470588235294, 0.96078431372549, 0.917647058823529, 1.0 ],
					"stripecolor" : [ 0.796078431372549, 0.207843137254902, 1.0, 1.0 ],
					"textcolor" : [ 0.129412, 0.129412, 0.129412, 1.0 ]
				}
,
				"parentstyle" : "",
				"multi" : 0
			}
 ],
		"saved_attribute_attributes" : 		{
			"editing_bgcolor" : 			{
				"expression" : "themecolor.theme_editing_bgcolor"
			}
,
			"locked_bgcolor" : 			{
				"expression" : "themecolor.theme_locked_bgcolor"
			}

		}

	}

}
